ISO-10303-21;
HEADER;
FILE_DESCRIPTION(('FreeCAD Model'),'2;1');
FILE_NAME('Open CASCADE Shape Model','2026-09-14T06:57:01',('Author'),(
    ''),'Open CASCADE STEP processor 7.8','FreeCAD','Unknown');
FILE_SCHEMA(('AUTOMOTIVE_DESIGN { 1 0 10303 214 1 1 1 1 }'));
ENDSEC;
DATA;
#1 = APPLICATION_PROTOCOL_DEFINITION('international standard',
  'automotive_design',2000,#2);
#2 = APPLICATION_CONTEXT(
  'core data for automotive mechanical design processes');
#3 = SHAPE_DEFINITION_REPRESENTATION(#4,#10);
#4 = PRODUCT_DEFINITION_SHAPE('','',#5);
#5 = PRODUCT_DEFINITION('design','',#6,#9);
#6 = PRODUCT_DEFINITION_FORMATION('','',#7);
#7 = PRODUCT(
  'Cover_SOURCE_REFERENCE [REFERENCE RPi v2; P5V04A FIT PENDING]',
  'Cover_SOURCE_REFERENCE [REFERENCE RPi v2; P5V04A FIT PENDING]','',(#8
    ));
#8 = PRODUCT_CONTEXT('',#2,'mechanical');
#9 = PRODUCT_DEFINITION_CONTEXT('part definition',#2,'design');
#10 = ADVANCED_BREP_SHAPE_REPRESENTATION('',(#11,#15),#1885);
#11 = AXIS2_PLACEMENT_3D('',#12,#13,#14);
#12 = CARTESIAN_POINT('',(0.,0.,0.));
#13 = DIRECTION('',(0.,0.,1.));
#14 = DIRECTION('',(1.,0.,-0.));
#15 = MANIFOLD_SOLID_BREP('',#16);
#16 = CLOSED_SHELL('',(#17,#57,#136,#166,#189,#205,#237,#260,#283,#362,
    #514,#538,#562,#586,#610,#641,#665,#689,#726,#756,#772,#795,#856,
    #886,#909,#925,#942,#959,#976,#1000,#1024,#1048,#1072,#1096,#1127,
    #1151,#1181,#1204,#1220,#1251,#1281,#1297,#1320,#1344,#1368,#1385,
    #1402,#1419,#1436,#1461,#1485,#1507,#1524,#1541,#1554,#1576,#1588,
    #1605,#1617,#1634,#1651,#1663,#1694,#1718,#1742,#1773,#1822,#1839,
    #1861,#1873));
#17 = ADVANCED_FACE('',(#18),#52,.T.);
#18 = FACE_BOUND('',#19,.T.);
#19 = EDGE_LOOP('',(#20,#30,#38,#46));
#20 = ORIENTED_EDGE('',*,*,#21,.T.);
#21 = EDGE_CURVE('',#22,#24,#26,.T.);
#22 = VERTEX_POINT('',#23);
#23 = CARTESIAN_POINT('',(-240.9995998535,306.,-0.46));
#24 = VERTEX_POINT('',#25);
#25 = CARTESIAN_POINT('',(-240.9995998535,306.,-5.46));
#26 = LINE('',#27,#28);
#27 = CARTESIAN_POINT('',(-240.9995998535,306.,-0.46));
#28 = VECTOR('',#29,1.);
#29 = DIRECTION('',(-3.486305596842E-32,1.570092458684E-16,-1.));
#30 = ORIENTED_EDGE('',*,*,#31,.T.);
#31 = EDGE_CURVE('',#24,#32,#34,.T.);
#32 = VERTEX_POINT('',#33);
#33 = CARTESIAN_POINT('',(-240.4995998535,306.5,-5.46));
#34 = LINE('',#35,#36);
#35 = CARTESIAN_POINT('',(-240.9995998535,306.,-5.46));
#36 = VECTOR('',#37,1.);
#37 = DIRECTION('',(0.707106781187,0.707106781187,1.110223024625E-16));
#38 = ORIENTED_EDGE('',*,*,#39,.F.);
#39 = EDGE_CURVE('',#40,#32,#42,.T.);
#40 = VERTEX_POINT('',#41);
#41 = CARTESIAN_POINT('',(-240.4995998535,306.5,-0.46));
#42 = LINE('',#43,#44);
#43 = CARTESIAN_POINT('',(-240.4995998535,306.5,-0.46));
#44 = VECTOR('',#45,1.);
#45 = DIRECTION('',(-3.486305596842E-32,1.570092458684E-16,-1.));
#46 = ORIENTED_EDGE('',*,*,#47,.T.);
#47 = EDGE_CURVE('',#40,#22,#48,.T.);
#48 = LINE('',#49,#50);
#49 = CARTESIAN_POINT('',(-240.4995998535,306.5,-0.46));
#50 = VECTOR('',#51,1.);
#51 = DIRECTION('',(-0.707106781187,-0.707106781187,-1.110223024625E-16)
  );
#52 = PLANE('',#53);
#53 = AXIS2_PLACEMENT_3D('',#54,#55,#56);
#54 = CARTESIAN_POINT('',(-240.7495998535,306.25,-2.96));
#55 = DIRECTION('',(0.707106781187,-0.707106781187,0.));
#56 = DIRECTION('',(0.707106781187,0.707106781187,0.));
#57 = ADVANCED_FACE('',(#58),#131,.T.);
#58 = FACE_BOUND('',#59,.T.);
#59 = EDGE_LOOP('',(#60,#70,#76,#77,#85,#93,#101,#109,#117,#125));
#60 = ORIENTED_EDGE('',*,*,#61,.F.);
#61 = EDGE_CURVE('',#62,#64,#66,.T.);
#62 = VERTEX_POINT('',#63);
#63 = CARTESIAN_POINT('',(-249.6995996627,306.,-0.46));
#64 = VERTEX_POINT('',#65);
#65 = CARTESIAN_POINT('',(-250.6996001396,307.,-0.46));
#66 = LINE('',#67,#68);
#67 = CARTESIAN_POINT('',(-249.6995996627,306.,-0.46));
#68 = VECTOR('',#69,1.);
#69 = DIRECTION('',(-0.707106949774,0.707106612599,1.110222759927E-16));
#70 = ORIENTED_EDGE('',*,*,#71,.F.);
#71 = EDGE_CURVE('',#22,#62,#72,.T.);
#72 = LINE('',#73,#74);
#73 = CARTESIAN_POINT('',(-240.9995998535,306.,-0.46));
#74 = VECTOR('',#75,1.);
#75 = DIRECTION('',(-1.,-2.22044604925E-16,0.));
#76 = ORIENTED_EDGE('',*,*,#47,.F.);
#77 = ORIENTED_EDGE('',*,*,#78,.F.);
#78 = EDGE_CURVE('',#79,#40,#81,.T.);
#79 = VERTEX_POINT('',#80);
#80 = CARTESIAN_POINT('',(-240.4995998535,309.64999961853,-0.46));
#81 = LINE('',#82,#83);
#82 = CARTESIAN_POINT('',(-240.4995998535,309.64999961853,-0.46));
#83 = VECTOR('',#84,1.);
#84 = DIRECTION('',(2.22044604925E-16,-1.,-1.570092458684E-16));
#85 = ORIENTED_EDGE('',*,*,#86,.F.);
#86 = EDGE_CURVE('',#87,#79,#89,.T.);
#87 = VERTEX_POINT('',#88);
#88 = CARTESIAN_POINT('',(-241.8996004257,309.64999961853,-0.46));
#89 = LINE('',#90,#91);
#90 = CARTESIAN_POINT('',(-241.8996004257,309.64999961853,-0.46));
#91 = VECTOR('',#92,1.);
#92 = DIRECTION('',(1.,2.22044604925E-16,0.));
#93 = ORIENTED_EDGE('',*,*,#94,.T.);
#94 = EDGE_CURVE('',#87,#95,#97,.T.);
#95 = VERTEX_POINT('',#96);
#96 = CARTESIAN_POINT('',(-241.8996004257,307.5,-0.46));
#97 = LINE('',#98,#99);
#98 = CARTESIAN_POINT('',(-241.8996004257,309.64999961853,-0.46));
#99 = VECTOR('',#100,1.);
#100 = DIRECTION('',(2.22044604925E-16,-1.,-1.570092458684E-16));
#101 = ORIENTED_EDGE('',*,*,#102,.T.);
#102 = EDGE_CURVE('',#95,#103,#105,.T.);
#103 = VERTEX_POINT('',#104);
#104 = CARTESIAN_POINT('',(-249.2996000442,307.5,-0.46));
#105 = LINE('',#106,#107);
#106 = CARTESIAN_POINT('',(-241.8996004257,307.5,-0.46));
#107 = VECTOR('',#108,1.);
#108 = DIRECTION('',(-1.,-2.22044604925E-16,0.));
#109 = ORIENTED_EDGE('',*,*,#110,.T.);
#110 = EDGE_CURVE('',#103,#111,#113,.T.);
#111 = VERTEX_POINT('',#112);
#112 = CARTESIAN_POINT('',(-249.4995998535,307.75,-0.46));
#113 = LINE('',#114,#115);
#114 = CARTESIAN_POINT('',(-249.2996000442,307.5,-0.46));
#115 = VECTOR('',#116,1.);
#116 = DIRECTION('',(-0.624694684289,0.780869100056,1.226036685216E-16)
  );
#117 = ORIENTED_EDGE('',*,*,#118,.F.);
#118 = EDGE_CURVE('',#119,#111,#121,.T.);
#119 = VERTEX_POINT('',#120);
#120 = CARTESIAN_POINT('',(-250.6996001396,308.94999980926,-0.46));
#121 = LINE('',#122,#123);
#122 = CARTESIAN_POINT('',(-250.6996001396,308.94999980926,-0.46));
#123 = VECTOR('',#124,1.);
#124 = DIRECTION('',(0.707106921676,-0.707106640697,-1.110222804044E-16)
  );
#125 = ORIENTED_EDGE('',*,*,#126,.F.);
#126 = EDGE_CURVE('',#64,#119,#127,.T.);
#127 = LINE('',#128,#129);
#128 = CARTESIAN_POINT('',(-250.6996001396,307.,-0.46));
#129 = VECTOR('',#130,1.);
#130 = DIRECTION('',(-2.22044604925E-16,1.,1.570092458684E-16));
#131 = PLANE('',#132);
#132 = AXIS2_PLACEMENT_3D('',#133,#134,#135);
#133 = CARTESIAN_POINT('',(-245.2368007759,307.29899182702,-0.46));
#134 = DIRECTION('',(0.,0.,1.));
#135 = DIRECTION('',(1.,0.,-0.));
#136 = ADVANCED_FACE('',(#137),#161,.T.);
#137 = FACE_BOUND('',#138,.T.);
#138 = EDGE_LOOP('',(#139,#149,#155));
#139 = ORIENTED_EDGE('',*,*,#140,.T.);
#140 = EDGE_CURVE('',#141,#143,#145,.T.);
#141 = VERTEX_POINT('',#142);
#142 = CARTESIAN_POINT('',(-239.9995998535,307.20711040496,-0.96));
#143 = VERTEX_POINT('',#144);
#144 = CARTESIAN_POINT('',(-239.9995998535,310.14999961853,-0.96));
#145 = LINE('',#146,#147);
#146 = CARTESIAN_POINT('',(-239.9995998535,307.20711040496,-0.96));
#147 = VECTOR('',#148,1.);
#148 = DIRECTION('',(-2.22044604925E-16,1.,1.570092458684E-16));
#149 = ORIENTED_EDGE('',*,*,#150,.F.);
#150 = EDGE_CURVE('',#79,#143,#151,.T.);
#151 = LINE('',#152,#153);
#152 = CARTESIAN_POINT('',(-240.4995998535,309.64999961853,-0.46));
#153 = VECTOR('',#154,1.);
#154 = DIRECTION('',(0.57735026919,0.57735026919,-0.57735026919));
#155 = ORIENTED_EDGE('',*,*,#156,.F.);
#156 = EDGE_CURVE('',#141,#79,#157,.T.);
#157 = LINE('',#158,#159);
#158 = CARTESIAN_POINT('',(-239.9995998535,307.20711040496,-0.96));
#159 = VECTOR('',#160,1.);
#160 = DIRECTION('',(-0.196605114707,0.960569028098,0.196605114707));
#161 = PLANE('',#162);
#162 = AXIS2_PLACEMENT_3D('',#163,#164,#165);
#163 = CARTESIAN_POINT('',(-240.1337760755,308.744991458,-0.825823778012
    ));
#164 = DIRECTION('',(0.707106781187,4.598694340586E-17,0.707106781187));
#165 = DIRECTION('',(-0.707106781187,-2.680315483309E-16,0.707106781187)
  );
#166 = ADVANCED_FACE('',(#167),#184,.T.);
#167 = FACE_BOUND('',#168,.T.);
#168 = EDGE_LOOP('',(#169,#177,#183));
#169 = ORIENTED_EDGE('',*,*,#170,.T.);
#170 = EDGE_CURVE('',#79,#171,#173,.T.);
#171 = VERTEX_POINT('',#172);
#172 = CARTESIAN_POINT('',(-240.1460498962,306.85356044769,
    -0.813553771973));
#173 = LINE('',#174,#175);
#174 = CARTESIAN_POINT('',(-240.4995998535,309.64999961853,-0.46));
#175 = VECTOR('',#176,1.);
#176 = DIRECTION('',(0.124454940485,-0.984388948197,-0.124456283317));
#177 = ORIENTED_EDGE('',*,*,#178,.T.);
#178 = EDGE_CURVE('',#171,#141,#179,.T.);
#179 = LINE('',#180,#181);
#180 = CARTESIAN_POINT('',(-240.1460498962,306.85356044769,
    -0.813553771973));
#181 = VECTOR('',#182,1.);
#182 = DIRECTION('',(0.357416756051,0.862851771706,-0.357407446141));
#183 = ORIENTED_EDGE('',*,*,#156,.T.);
#184 = PLANE('',#185);
#185 = AXIS2_PLACEMENT_3D('',#186,#187,#188);
#186 = CARTESIAN_POINT('',(-240.2730017938,308.24299233891,
    -0.686599129746));
#187 = DIRECTION('',(0.7071006174,-2.523142282464E-06,0.707112944914));
#188 = DIRECTION('',(-0.707112944917,-2.680319491829E-16,0.707100617403)
  );
#189 = ADVANCED_FACE('',(#190),#200,.T.);
#190 = FACE_BOUND('',#191,.T.);
#191 = EDGE_LOOP('',(#192,#193,#199));
#192 = ORIENTED_EDGE('',*,*,#78,.T.);
#193 = ORIENTED_EDGE('',*,*,#194,.T.);
#194 = EDGE_CURVE('',#40,#171,#195,.T.);
#195 = LINE('',#196,#197);
#196 = CARTESIAN_POINT('',(-240.4995998535,306.5,-0.46));
#197 = VECTOR('',#198,1.);
#198 = DIRECTION('',(0.577342482457,0.577359613173,-0.577348711808));
#199 = ORIENTED_EDGE('',*,*,#170,.F.);
#200 = PLANE('',#201);
#201 = AXIS2_PLACEMENT_3D('',#202,#203,#204);
#202 = CARTESIAN_POINT('',(-240.4071543494,308.02138315179,
    -0.552446501512));
#203 = DIRECTION('',(0.70711059589,4.598838938712E-17,0.707102966463));
#204 = DIRECTION('',(0.707102966463,2.680313002357E-16,-0.70711059589));
#205 = ADVANCED_FACE('',(#206),#232,.T.);
#206 = FACE_BOUND('',#207,.T.);
#207 = EDGE_LOOP('',(#208,#218,#226));
#208 = ORIENTED_EDGE('',*,*,#209,.F.);
#209 = EDGE_CURVE('',#210,#212,#214,.T.);
#210 = VERTEX_POINT('',#211);
#211 = CARTESIAN_POINT('',(-240.1460498962,338.1464395523,
    -0.813553771973));
#212 = VERTEX_POINT('',#213);
#213 = CARTESIAN_POINT('',(-239.9995998535,337.79288959503,-0.96));
#214 = LINE('',#215,#216);
#215 = CARTESIAN_POINT('',(-240.1460498962,338.1464395523,
    -0.813553771973));
#216 = VECTOR('',#217,1.);
#217 = DIRECTION('',(0.357416756051,-0.862851771706,-0.357407446141));
#218 = ORIENTED_EDGE('',*,*,#219,.T.);
#219 = EDGE_CURVE('',#210,#220,#222,.T.);
#220 = VERTEX_POINT('',#221);
#221 = CARTESIAN_POINT('',(-240.4995998535,335.35000038147,-0.46));
#222 = LINE('',#223,#224);
#223 = CARTESIAN_POINT('',(-240.1460498962,338.1464395523,
    -0.813553771973));
#224 = VECTOR('',#225,1.);
#225 = DIRECTION('',(-0.124454940485,-0.984388948197,0.124456283317));
#226 = ORIENTED_EDGE('',*,*,#227,.F.);
#227 = EDGE_CURVE('',#212,#220,#228,.T.);
#228 = LINE('',#229,#230);
#229 = CARTESIAN_POINT('',(-239.9995998535,337.79288959503,-0.96));
#230 = VECTOR('',#231,1.);
#231 = DIRECTION('',(-0.196605114707,-0.960569028098,0.196605114707));
#232 = PLANE('',#233);
#233 = AXIS2_PLACEMENT_3D('',#234,#235,#236);
#234 = CARTESIAN_POINT('',(-240.2730017938,336.75700766108,
    -0.686599129746));
#235 = DIRECTION('',(0.7071006174,2.523142282556E-06,0.707112944914));
#236 = DIRECTION('',(-0.707112944917,-2.680319491829E-16,0.707100617403)
  );
#237 = ADVANCED_FACE('',(#238),#255,.T.);
#238 = FACE_BOUND('',#239,.T.);
#239 = EDGE_LOOP('',(#240,#248,#254));
#240 = ORIENTED_EDGE('',*,*,#241,.T.);
#241 = EDGE_CURVE('',#220,#242,#244,.T.);
#242 = VERTEX_POINT('',#243);
#243 = CARTESIAN_POINT('',(-239.9995998535,334.85000038147,-0.96));
#244 = LINE('',#245,#246);
#245 = CARTESIAN_POINT('',(-240.4995998535,335.35000038147,-0.46));
#246 = VECTOR('',#247,1.);
#247 = DIRECTION('',(0.57735026919,-0.57735026919,-0.57735026919));
#248 = ORIENTED_EDGE('',*,*,#249,.T.);
#249 = EDGE_CURVE('',#242,#212,#250,.T.);
#250 = LINE('',#251,#252);
#251 = CARTESIAN_POINT('',(-239.9995998535,334.85000038147,-0.96));
#252 = VECTOR('',#253,1.);
#253 = DIRECTION('',(-2.22044604925E-16,1.,1.570092458684E-16));
#254 = ORIENTED_EDGE('',*,*,#227,.T.);
#255 = PLANE('',#256);
#256 = AXIS2_PLACEMENT_3D('',#257,#258,#259);
#257 = CARTESIAN_POINT('',(-240.1337760755,336.25500854199,
    -0.825823778012));
#258 = DIRECTION('',(0.707106781187,4.598694340586E-17,0.707106781187));
#259 = DIRECTION('',(-0.707106781187,-2.680315483309E-16,0.707106781187)
  );
#260 = ADVANCED_FACE('',(#261),#278,.T.);
#261 = FACE_BOUND('',#262,.T.);
#262 = EDGE_LOOP('',(#263,#271,#277));
#263 = ORIENTED_EDGE('',*,*,#264,.F.);
#264 = EDGE_CURVE('',#265,#210,#267,.T.);
#265 = VERTEX_POINT('',#266);
#266 = CARTESIAN_POINT('',(-240.4995998535,338.5,-0.46));
#267 = LINE('',#268,#269);
#268 = CARTESIAN_POINT('',(-240.4995998535,338.5,-0.46));
#269 = VECTOR('',#270,1.);
#270 = DIRECTION('',(0.577342482457,-0.577359613173,-0.577348711808));
#271 = ORIENTED_EDGE('',*,*,#272,.F.);
#272 = EDGE_CURVE('',#220,#265,#273,.T.);
#273 = LINE('',#274,#275);
#274 = CARTESIAN_POINT('',(-240.4995998535,335.35000038147,-0.46));
#275 = VECTOR('',#276,1.);
#276 = DIRECTION('',(-2.22044604925E-16,1.,1.570092458684E-16));
#277 = ORIENTED_EDGE('',*,*,#219,.F.);
#278 = PLANE('',#279);
#279 = AXIS2_PLACEMENT_3D('',#280,#281,#282);
#280 = CARTESIAN_POINT('',(-240.4071543494,336.9786168482,
    -0.552446501512));
#281 = DIRECTION('',(0.70711059589,4.598838938712E-17,0.707102966463));
#282 = DIRECTION('',(0.707102966463,2.680313002357E-16,-0.70711059589));
#283 = ADVANCED_FACE('',(#284),#357,.T.);
#284 = FACE_BOUND('',#285,.T.);
#285 = EDGE_LOOP('',(#286,#287,#295,#303,#311,#319,#327,#335,#343,#351)
  );
#286 = ORIENTED_EDGE('',*,*,#272,.T.);
#287 = ORIENTED_EDGE('',*,*,#288,.T.);
#288 = EDGE_CURVE('',#265,#289,#291,.T.);
#289 = VERTEX_POINT('',#290);
#290 = CARTESIAN_POINT('',(-240.9995998535,339.,-0.46));
#291 = LINE('',#292,#293);
#292 = CARTESIAN_POINT('',(-240.4995998535,338.5,-0.46));
#293 = VECTOR('',#294,1.);
#294 = DIRECTION('',(-0.707106781187,0.707106781187,1.110223024625E-16)
  );
#295 = ORIENTED_EDGE('',*,*,#296,.F.);
#296 = EDGE_CURVE('',#297,#289,#299,.T.);
#297 = VERTEX_POINT('',#298);
#298 = CARTESIAN_POINT('',(-249.6995996627,339.,-0.46));
#299 = LINE('',#300,#301);
#300 = CARTESIAN_POINT('',(-249.6995996627,339.,-0.46));
#301 = VECTOR('',#302,1.);
#302 = DIRECTION('',(1.,2.22044604925E-16,0.));
#303 = ORIENTED_EDGE('',*,*,#304,.F.);
#304 = EDGE_CURVE('',#305,#297,#307,.T.);
#305 = VERTEX_POINT('',#306);
#306 = CARTESIAN_POINT('',(-250.6996001396,338.,-0.46));
#307 = LINE('',#308,#309);
#308 = CARTESIAN_POINT('',(-250.6996001396,338.,-0.46));
#309 = VECTOR('',#310,1.);
#310 = DIRECTION('',(0.707106949774,0.707106612599,1.110222759927E-16));
#311 = ORIENTED_EDGE('',*,*,#312,.F.);
#312 = EDGE_CURVE('',#313,#305,#315,.T.);
#313 = VERTEX_POINT('',#314);
#314 = CARTESIAN_POINT('',(-250.6996001396,336.05000019073,-0.46));
#315 = LINE('',#316,#317);
#316 = CARTESIAN_POINT('',(-250.6996001396,336.05000019073,-0.46));
#317 = VECTOR('',#318,1.);
#318 = DIRECTION('',(-2.22044604925E-16,1.,1.570092458684E-16));
#319 = ORIENTED_EDGE('',*,*,#320,.F.);
#320 = EDGE_CURVE('',#321,#313,#323,.T.);
#321 = VERTEX_POINT('',#322);
#322 = CARTESIAN_POINT('',(-249.4995998535,337.25,-0.46));
#323 = LINE('',#324,#325);
#324 = CARTESIAN_POINT('',(-249.4995998535,337.25,-0.46));
#325 = VECTOR('',#326,1.);
#326 = DIRECTION('',(-0.707106921676,-0.707106640697,-1.110222804044E-16
    ));
#327 = ORIENTED_EDGE('',*,*,#328,.F.);
#328 = EDGE_CURVE('',#329,#321,#331,.T.);
#329 = VERTEX_POINT('',#330);
#330 = CARTESIAN_POINT('',(-249.2996000442,337.5,-0.46));
#331 = LINE('',#332,#333);
#332 = CARTESIAN_POINT('',(-249.2996000442,337.5,-0.46));
#333 = VECTOR('',#334,1.);
#334 = DIRECTION('',(-0.624694684289,-0.780869100056,-1.226036685216E-16
    ));
#335 = ORIENTED_EDGE('',*,*,#336,.F.);
#336 = EDGE_CURVE('',#337,#329,#339,.T.);
#337 = VERTEX_POINT('',#338);
#338 = CARTESIAN_POINT('',(-241.8996004257,337.5,-0.46));
#339 = LINE('',#340,#341);
#340 = CARTESIAN_POINT('',(-241.8996004257,337.5,-0.46));
#341 = VECTOR('',#342,1.);
#342 = DIRECTION('',(-1.,-2.22044604925E-16,0.));
#343 = ORIENTED_EDGE('',*,*,#344,.T.);
#344 = EDGE_CURVE('',#337,#345,#347,.T.);
#345 = VERTEX_POINT('',#346);
#346 = CARTESIAN_POINT('',(-241.8996004257,335.35000038147,-0.46));
#347 = LINE('',#348,#349);
#348 = CARTESIAN_POINT('',(-241.8996004257,337.5,-0.46));
#349 = VECTOR('',#350,1.);
#350 = DIRECTION('',(2.22044604925E-16,-1.,-1.570092458684E-16));
#351 = ORIENTED_EDGE('',*,*,#352,.T.);
#352 = EDGE_CURVE('',#345,#220,#353,.T.);
#353 = LINE('',#354,#355);
#354 = CARTESIAN_POINT('',(-241.8996004257,335.35000038147,-0.46));
#355 = VECTOR('',#356,1.);
#356 = DIRECTION('',(1.,2.22044604925E-16,0.));
#357 = PLANE('',#358);
#358 = AXIS2_PLACEMENT_3D('',#359,#360,#361);
#359 = CARTESIAN_POINT('',(-245.2368007759,337.70100817297,-0.46));
#360 = DIRECTION('',(0.,0.,1.));
#361 = DIRECTION('',(1.,0.,-0.));
#362 = ADVANCED_FACE('',(#363,#475),#509,.T.);
#363 = FACE_BOUND('',#364,.T.);
#364 = EDGE_LOOP('',(#365,#373,#381,#389,#397,#405,#413,#419,#420,#428,
    #436,#444,#452,#460,#468,#474));
#365 = ORIENTED_EDGE('',*,*,#366,.F.);
#366 = EDGE_CURVE('',#367,#87,#369,.T.);
#367 = VERTEX_POINT('',#368);
#368 = CARTESIAN_POINT('',(-241.8996004257,309.64999961853,
    9.889990844727));
#369 = LINE('',#370,#371);
#370 = CARTESIAN_POINT('',(-241.8996004257,309.64999961853,
    9.889990844727));
#371 = VECTOR('',#372,1.);
#372 = DIRECTION('',(-3.486305596842E-32,1.570092458684E-16,-1.));
#373 = ORIENTED_EDGE('',*,*,#374,.F.);
#374 = EDGE_CURVE('',#375,#367,#377,.T.);
#375 = VERTEX_POINT('',#376);
#376 = CARTESIAN_POINT('',(-241.8996004257,320.,9.889990844727));
#377 = LINE('',#378,#379);
#378 = CARTESIAN_POINT('',(-241.8996004257,320.,9.889990844727));
#379 = VECTOR('',#380,1.);
#380 = DIRECTION('',(2.22044604925E-16,-1.,-1.570092458684E-16));
#381 = ORIENTED_EDGE('',*,*,#382,.F.);
#382 = EDGE_CURVE('',#383,#375,#385,.T.);
#383 = VERTEX_POINT('',#384);
#384 = CARTESIAN_POINT('',(-241.8996004257,320.,11.54));
#385 = LINE('',#386,#387);
#386 = CARTESIAN_POINT('',(-241.8996004257,320.,11.54));
#387 = VECTOR('',#388,1.);
#388 = DIRECTION('',(-3.486305596842E-32,1.570092458684E-16,-1.));
#389 = ORIENTED_EDGE('',*,*,#390,.F.);
#390 = EDGE_CURVE('',#391,#383,#393,.T.);
#391 = VERTEX_POINT('',#392);
#392 = CARTESIAN_POINT('',(-241.8996004257,325.,11.54));
#393 = LINE('',#394,#395);
#394 = CARTESIAN_POINT('',(-241.8996004257,325.,11.54));
#395 = VECTOR('',#396,1.);
#396 = DIRECTION('',(2.22044604925E-16,-1.,-1.570092458684E-16));
#397 = ORIENTED_EDGE('',*,*,#398,.F.);
#398 = EDGE_CURVE('',#399,#391,#401,.T.);
#399 = VERTEX_POINT('',#400);
#400 = CARTESIAN_POINT('',(-241.8996004257,325.,9.889990844727));
#401 = LINE('',#402,#403);
#402 = CARTESIAN_POINT('',(-241.8996004257,325.,9.889990844727));
#403 = VECTOR('',#404,1.);
#404 = DIRECTION('',(3.486305596842E-32,-1.570092458684E-16,1.));
#405 = ORIENTED_EDGE('',*,*,#406,.F.);
#406 = EDGE_CURVE('',#407,#399,#409,.T.);
#407 = VERTEX_POINT('',#408);
#408 = CARTESIAN_POINT('',(-241.8996004257,335.35000038147,
    9.889990844727));
#409 = LINE('',#410,#411);
#410 = CARTESIAN_POINT('',(-241.8996004257,335.35000038147,
    9.889990844727));
#411 = VECTOR('',#412,1.);
#412 = DIRECTION('',(2.22044604925E-16,-1.,-1.570092458684E-16));
#413 = ORIENTED_EDGE('',*,*,#414,.F.);
#414 = EDGE_CURVE('',#345,#407,#415,.T.);
#415 = LINE('',#416,#417);
#416 = CARTESIAN_POINT('',(-241.8996004257,335.35000038147,-0.46));
#417 = VECTOR('',#418,1.);
#418 = DIRECTION('',(3.486305596842E-32,-1.570092458684E-16,1.));
#419 = ORIENTED_EDGE('',*,*,#344,.F.);
#420 = ORIENTED_EDGE('',*,*,#421,.F.);
#421 = EDGE_CURVE('',#422,#337,#424,.T.);
#422 = VERTEX_POINT('',#423);
#423 = CARTESIAN_POINT('',(-241.8996004257,337.5,-5.46));
#424 = LINE('',#425,#426);
#425 = CARTESIAN_POINT('',(-241.8996004257,337.5,-5.46));
#426 = VECTOR('',#427,1.);
#427 = DIRECTION('',(3.486305596842E-32,-1.570092458684E-16,1.));
#428 = ORIENTED_EDGE('',*,*,#429,.F.);
#429 = EDGE_CURVE('',#430,#422,#432,.T.);
#430 = VERTEX_POINT('',#431);
#431 = CARTESIAN_POINT('',(-241.8996004257,335.35000038147,-5.46));
#432 = LINE('',#433,#434);
#433 = CARTESIAN_POINT('',(-241.8996004257,335.35000038147,-5.46));
#434 = VECTOR('',#435,1.);
#435 = DIRECTION('',(-2.22044604925E-16,1.,1.570092458684E-16));
#436 = ORIENTED_EDGE('',*,*,#437,.F.);
#437 = EDGE_CURVE('',#438,#430,#440,.T.);
#438 = VERTEX_POINT('',#439);
#439 = CARTESIAN_POINT('',(-241.8996004257,335.35000038147,
    -15.80999847412));
#440 = LINE('',#441,#442);
#441 = CARTESIAN_POINT('',(-241.8996004257,335.35000038147,
    -15.80999847412));
#442 = VECTOR('',#443,1.);
#443 = DIRECTION('',(3.486305596842E-32,-1.570092458684E-16,1.));
#444 = ORIENTED_EDGE('',*,*,#445,.F.);
#445 = EDGE_CURVE('',#446,#438,#448,.T.);
#446 = VERTEX_POINT('',#447);
#447 = CARTESIAN_POINT('',(-241.8996004257,309.64999961853,
    -15.80999847412));
#448 = LINE('',#449,#450);
#449 = CARTESIAN_POINT('',(-241.8996004257,309.64999961853,
    -15.80999847412));
#450 = VECTOR('',#451,1.);
#451 = DIRECTION('',(-2.22044604925E-16,1.,1.570092458684E-16));
#452 = ORIENTED_EDGE('',*,*,#453,.F.);
#453 = EDGE_CURVE('',#454,#446,#456,.T.);
#454 = VERTEX_POINT('',#455);
#455 = CARTESIAN_POINT('',(-241.8996004257,309.64999961853,-5.46));
#456 = LINE('',#457,#458);
#457 = CARTESIAN_POINT('',(-241.8996004257,309.64999961853,-5.46));
#458 = VECTOR('',#459,1.);
#459 = DIRECTION('',(-3.486305596842E-32,1.570092458684E-16,-1.));
#460 = ORIENTED_EDGE('',*,*,#461,.F.);
#461 = EDGE_CURVE('',#462,#454,#464,.T.);
#462 = VERTEX_POINT('',#463);
#463 = CARTESIAN_POINT('',(-241.8996004257,307.5,-5.46));
#464 = LINE('',#465,#466);
#465 = CARTESIAN_POINT('',(-241.8996004257,307.5,-5.46));
#466 = VECTOR('',#467,1.);
#467 = DIRECTION('',(-2.22044604925E-16,1.,1.570092458684E-16));
#468 = ORIENTED_EDGE('',*,*,#469,.F.);
#469 = EDGE_CURVE('',#95,#462,#470,.T.);
#470 = LINE('',#471,#472);
#471 = CARTESIAN_POINT('',(-241.8996004257,307.5,-0.46));
#472 = VECTOR('',#473,1.);
#473 = DIRECTION('',(-3.486305596842E-32,1.570092458684E-16,-1.));
#474 = ORIENTED_EDGE('',*,*,#94,.F.);
#475 = FACE_BOUND('',#476,.T.);
#476 = EDGE_LOOP('',(#477,#487,#495,#503));
#477 = ORIENTED_EDGE('',*,*,#478,.T.);
#478 = EDGE_CURVE('',#479,#481,#483,.T.);
#479 = VERTEX_POINT('',#480);
#480 = CARTESIAN_POINT('',(-241.8996004257,318.15000009536,
    -0.648003540039));
#481 = VERTEX_POINT('',#482);
#482 = CARTESIAN_POINT('',(-241.8996004257,318.15000009536,
    -9.348000488281));
#483 = LINE('',#484,#485);
#484 = CARTESIAN_POINT('',(-241.8996004257,318.15000009536,
    -0.648003540039));
#485 = VECTOR('',#486,1.);
#486 = DIRECTION('',(-3.486305596842E-32,1.570092458684E-16,-1.));
#487 = ORIENTED_EDGE('',*,*,#488,.T.);
#488 = EDGE_CURVE('',#481,#489,#491,.T.);
#489 = VERTEX_POINT('',#490);
#490 = CARTESIAN_POINT('',(-241.8996004257,326.84999990463,
    -9.348000488281));
#491 = LINE('',#492,#493);
#492 = CARTESIAN_POINT('',(-241.8996004257,318.15000009536,
    -9.348000488281));
#493 = VECTOR('',#494,1.);
#494 = DIRECTION('',(-2.22044604925E-16,1.,1.570092458684E-16));
#495 = ORIENTED_EDGE('',*,*,#496,.T.);
#496 = EDGE_CURVE('',#489,#497,#499,.T.);
#497 = VERTEX_POINT('',#498);
#498 = CARTESIAN_POINT('',(-241.8996004257,326.84999990463,
    -0.648003540039));
#499 = LINE('',#500,#501);
#500 = CARTESIAN_POINT('',(-241.8996004257,326.84999990463,
    -9.348000488281));
#501 = VECTOR('',#502,1.);
#502 = DIRECTION('',(3.486305596842E-32,-1.570092458684E-16,1.));
#503 = ORIENTED_EDGE('',*,*,#504,.T.);
#504 = EDGE_CURVE('',#497,#479,#505,.T.);
#505 = LINE('',#506,#507);
#506 = CARTESIAN_POINT('',(-241.8996004257,326.84999990463,
    -0.648003540039));
#507 = VECTOR('',#508,1.);
#508 = DIRECTION('',(2.22044604925E-16,-1.,-1.570092458684E-16));
#509 = PLANE('',#510);
#510 = AXIS2_PLACEMENT_3D('',#511,#512,#513);
#511 = CARTESIAN_POINT('',(-241.8996004257,322.5,-2.494634783468));
#512 = DIRECTION('',(-1.,-0.,-0.));
#513 = DIRECTION('',(0.,0.,-1.));
#514 = ADVANCED_FACE('',(#515),#533,.T.);
#515 = FACE_BOUND('',#516,.T.);
#516 = EDGE_LOOP('',(#517,#518,#519,#527));
#517 = ORIENTED_EDGE('',*,*,#421,.T.);
#518 = ORIENTED_EDGE('',*,*,#336,.T.);
#519 = ORIENTED_EDGE('',*,*,#520,.T.);
#520 = EDGE_CURVE('',#329,#521,#523,.T.);
#521 = VERTEX_POINT('',#522);
#522 = CARTESIAN_POINT('',(-249.2996000442,337.5,-5.46));
#523 = LINE('',#524,#525);
#524 = CARTESIAN_POINT('',(-249.2996000442,337.5,-0.46));
#525 = VECTOR('',#526,1.);
#526 = DIRECTION('',(-3.486305596842E-32,1.570092458684E-16,-1.));
#527 = ORIENTED_EDGE('',*,*,#528,.T.);
#528 = EDGE_CURVE('',#521,#422,#529,.T.);
#529 = LINE('',#530,#531);
#530 = CARTESIAN_POINT('',(-249.2996000442,337.5,-5.46));
#531 = VECTOR('',#532,1.);
#532 = DIRECTION('',(1.,2.22044604925E-16,0.));
#533 = PLANE('',#534);
#534 = AXIS2_PLACEMENT_3D('',#535,#536,#537);
#535 = CARTESIAN_POINT('',(-245.5996002349,337.5,-2.96));
#536 = DIRECTION('',(-0.,-1.,-0.));
#537 = DIRECTION('',(0.,0.,-1.));
#538 = ADVANCED_FACE('',(#539),#557,.T.);
#539 = FACE_BOUND('',#540,.T.);
#540 = EDGE_LOOP('',(#541,#542,#543,#551));
#541 = ORIENTED_EDGE('',*,*,#520,.F.);
#542 = ORIENTED_EDGE('',*,*,#328,.T.);
#543 = ORIENTED_EDGE('',*,*,#544,.T.);
#544 = EDGE_CURVE('',#321,#545,#547,.T.);
#545 = VERTEX_POINT('',#546);
#546 = CARTESIAN_POINT('',(-249.4995998535,337.25,-5.46));
#547 = LINE('',#548,#549);
#548 = CARTESIAN_POINT('',(-249.4995998535,337.25,-0.46));
#549 = VECTOR('',#550,1.);
#550 = DIRECTION('',(-3.486305596842E-32,1.570092458684E-16,-1.));
#551 = ORIENTED_EDGE('',*,*,#552,.T.);
#552 = EDGE_CURVE('',#545,#521,#553,.T.);
#553 = LINE('',#554,#555);
#554 = CARTESIAN_POINT('',(-249.4995998535,337.25,-5.46));
#555 = VECTOR('',#556,1.);
#556 = DIRECTION('',(0.624694684289,0.780869100056,1.226036685216E-16));
#557 = PLANE('',#558);
#558 = AXIS2_PLACEMENT_3D('',#559,#560,#561);
#559 = CARTESIAN_POINT('',(-249.3995999488,337.375,-2.96));
#560 = DIRECTION('',(0.780869100056,-0.624694684289,0.));
#561 = DIRECTION('',(0.624694684289,0.780869100056,0.));
#562 = ADVANCED_FACE('',(#563),#581,.T.);
#563 = FACE_BOUND('',#564,.T.);
#564 = EDGE_LOOP('',(#565,#566,#567,#575));
#565 = ORIENTED_EDGE('',*,*,#544,.F.);
#566 = ORIENTED_EDGE('',*,*,#320,.T.);
#567 = ORIENTED_EDGE('',*,*,#568,.T.);
#568 = EDGE_CURVE('',#313,#569,#571,.T.);
#569 = VERTEX_POINT('',#570);
#570 = CARTESIAN_POINT('',(-250.6996001396,336.05000019073,-5.46));
#571 = LINE('',#572,#573);
#572 = CARTESIAN_POINT('',(-250.6996001396,336.05000019073,-0.46));
#573 = VECTOR('',#574,1.);
#574 = DIRECTION('',(-3.486305596842E-32,1.570092458684E-16,-1.));
#575 = ORIENTED_EDGE('',*,*,#576,.T.);
#576 = EDGE_CURVE('',#569,#545,#577,.T.);
#577 = LINE('',#578,#579);
#578 = CARTESIAN_POINT('',(-250.6996001396,336.05000019073,-5.46));
#579 = VECTOR('',#580,1.);
#580 = DIRECTION('',(0.707106921676,0.707106640697,1.110222804044E-16));
#581 = PLANE('',#582);
#582 = AXIS2_PLACEMENT_3D('',#583,#584,#585);
#583 = CARTESIAN_POINT('',(-250.0995999965,336.65000009536,-2.96));
#584 = DIRECTION('',(0.707106640697,-0.707106921676,-0.));
#585 = DIRECTION('',(-0.707106921676,-0.707106640697,0.));
#586 = ADVANCED_FACE('',(#587),#605,.T.);
#587 = FACE_BOUND('',#588,.T.);
#588 = EDGE_LOOP('',(#589,#590,#591,#599));
#589 = ORIENTED_EDGE('',*,*,#568,.F.);
#590 = ORIENTED_EDGE('',*,*,#312,.T.);
#591 = ORIENTED_EDGE('',*,*,#592,.T.);
#592 = EDGE_CURVE('',#305,#593,#595,.T.);
#593 = VERTEX_POINT('',#594);
#594 = CARTESIAN_POINT('',(-250.6996001396,338.,-5.46));
#595 = LINE('',#596,#597);
#596 = CARTESIAN_POINT('',(-250.6996001396,338.,-0.46));
#597 = VECTOR('',#598,1.);
#598 = DIRECTION('',(-3.486305596842E-32,1.570092458684E-16,-1.));
#599 = ORIENTED_EDGE('',*,*,#600,.T.);
#600 = EDGE_CURVE('',#593,#569,#601,.T.);
#601 = LINE('',#602,#603);
#602 = CARTESIAN_POINT('',(-250.6996001396,338.,-5.46));
#603 = VECTOR('',#604,1.);
#604 = DIRECTION('',(2.22044604925E-16,-1.,-1.570092458684E-16));
#605 = PLANE('',#606);
#606 = AXIS2_PLACEMENT_3D('',#607,#608,#609);
#607 = CARTESIAN_POINT('',(-250.6996001396,337.02500009536,-2.96));
#608 = DIRECTION('',(-1.,-0.,-0.));
#609 = DIRECTION('',(0.,0.,-1.));
#610 = ADVANCED_FACE('',(#611),#636,.T.);
#611 = FACE_BOUND('',#612,.T.);
#612 = EDGE_LOOP('',(#613,#621,#622,#630));
#613 = ORIENTED_EDGE('',*,*,#614,.F.);
#614 = EDGE_CURVE('',#64,#615,#617,.T.);
#615 = VERTEX_POINT('',#616);
#616 = CARTESIAN_POINT('',(-250.6996001396,307.,-5.46));
#617 = LINE('',#618,#619);
#618 = CARTESIAN_POINT('',(-250.6996001396,307.,-0.46));
#619 = VECTOR('',#620,1.);
#620 = DIRECTION('',(-3.486305596842E-32,1.570092458684E-16,-1.));
#621 = ORIENTED_EDGE('',*,*,#126,.T.);
#622 = ORIENTED_EDGE('',*,*,#623,.T.);
#623 = EDGE_CURVE('',#119,#624,#626,.T.);
#624 = VERTEX_POINT('',#625);
#625 = CARTESIAN_POINT('',(-250.6996001396,308.94999980926,-5.46));
#626 = LINE('',#627,#628);
#627 = CARTESIAN_POINT('',(-250.6996001396,308.94999980926,-0.46));
#628 = VECTOR('',#629,1.);
#629 = DIRECTION('',(-3.486305596842E-32,1.570092458684E-16,-1.));
#630 = ORIENTED_EDGE('',*,*,#631,.T.);
#631 = EDGE_CURVE('',#624,#615,#632,.T.);
#632 = LINE('',#633,#634);
#633 = CARTESIAN_POINT('',(-250.6996001396,308.94999980926,-5.46));
#634 = VECTOR('',#635,1.);
#635 = DIRECTION('',(2.22044604925E-16,-1.,-1.570092458684E-16));
#636 = PLANE('',#637);
#637 = AXIS2_PLACEMENT_3D('',#638,#639,#640);
#638 = CARTESIAN_POINT('',(-250.6996001396,307.97499990463,-2.96));
#639 = DIRECTION('',(-1.,-0.,-0.));
#640 = DIRECTION('',(0.,0.,-1.));
#641 = ADVANCED_FACE('',(#642),#660,.T.);
#642 = FACE_BOUND('',#643,.T.);
#643 = EDGE_LOOP('',(#644,#645,#646,#654));
#644 = ORIENTED_EDGE('',*,*,#592,.F.);
#645 = ORIENTED_EDGE('',*,*,#304,.T.);
#646 = ORIENTED_EDGE('',*,*,#647,.T.);
#647 = EDGE_CURVE('',#297,#648,#650,.T.);
#648 = VERTEX_POINT('',#649);
#649 = CARTESIAN_POINT('',(-249.6995996627,339.,-5.46));
#650 = LINE('',#651,#652);
#651 = CARTESIAN_POINT('',(-249.6995996627,339.,-0.46));
#652 = VECTOR('',#653,1.);
#653 = DIRECTION('',(-3.486305596842E-32,1.570092458684E-16,-1.));
#654 = ORIENTED_EDGE('',*,*,#655,.T.);
#655 = EDGE_CURVE('',#648,#593,#656,.T.);
#656 = LINE('',#657,#658);
#657 = CARTESIAN_POINT('',(-249.6995996627,339.,-5.46));
#658 = VECTOR('',#659,1.);
#659 = DIRECTION('',(-0.707106949774,-0.707106612599,-1.110222759927E-16
    ));
#660 = PLANE('',#661);
#661 = AXIS2_PLACEMENT_3D('',#662,#663,#664);
#662 = CARTESIAN_POINT('',(-250.1995999011,338.5,-2.96));
#663 = DIRECTION('',(-0.707106612599,0.707106949774,0.));
#664 = DIRECTION('',(0.707106949774,0.707106612599,0.));
#665 = ADVANCED_FACE('',(#666),#684,.T.);
#666 = FACE_BOUND('',#667,.T.);
#667 = EDGE_LOOP('',(#668,#669,#670,#678));
#668 = ORIENTED_EDGE('',*,*,#647,.F.);
#669 = ORIENTED_EDGE('',*,*,#296,.T.);
#670 = ORIENTED_EDGE('',*,*,#671,.T.);
#671 = EDGE_CURVE('',#289,#672,#674,.T.);
#672 = VERTEX_POINT('',#673);
#673 = CARTESIAN_POINT('',(-240.9995998535,339.,-5.46));
#674 = LINE('',#675,#676);
#675 = CARTESIAN_POINT('',(-240.9995998535,339.,-0.46));
#676 = VECTOR('',#677,1.);
#677 = DIRECTION('',(-3.486305596842E-32,1.570092458684E-16,-1.));
#678 = ORIENTED_EDGE('',*,*,#679,.T.);
#679 = EDGE_CURVE('',#672,#648,#680,.T.);
#680 = LINE('',#681,#682);
#681 = CARTESIAN_POINT('',(-240.9995998535,339.,-5.46));
#682 = VECTOR('',#683,1.);
#683 = DIRECTION('',(-1.,-2.22044604925E-16,0.));
#684 = PLANE('',#685);
#685 = AXIS2_PLACEMENT_3D('',#686,#687,#688);
#686 = CARTESIAN_POINT('',(-245.3495997581,339.,-2.96));
#687 = DIRECTION('',(0.,1.,0.));
#688 = DIRECTION('',(0.,-0.,1.));
#689 = ADVANCED_FACE('',(#690),#721,.T.);
#690 = FACE_BOUND('',#691,.T.);
#691 = EDGE_LOOP('',(#692,#693,#694,#702,#710,#716,#717,#718,#719,#720)
  );
#692 = ORIENTED_EDGE('',*,*,#655,.F.);
#693 = ORIENTED_EDGE('',*,*,#679,.F.);
#694 = ORIENTED_EDGE('',*,*,#695,.T.);
#695 = EDGE_CURVE('',#672,#696,#698,.T.);
#696 = VERTEX_POINT('',#697);
#697 = CARTESIAN_POINT('',(-240.4995998535,338.5,-5.46));
#698 = LINE('',#699,#700);
#699 = CARTESIAN_POINT('',(-240.9995998535,339.,-5.46));
#700 = VECTOR('',#701,1.);
#701 = DIRECTION('',(0.707106781187,-0.707106781187,-1.110223024625E-16)
  );
#702 = ORIENTED_EDGE('',*,*,#703,.T.);
#703 = EDGE_CURVE('',#696,#704,#706,.T.);
#704 = VERTEX_POINT('',#705);
#705 = CARTESIAN_POINT('',(-240.4995998535,335.35000038147,-5.46));
#706 = LINE('',#707,#708);
#707 = CARTESIAN_POINT('',(-240.4995998535,338.5,-5.46));
#708 = VECTOR('',#709,1.);
#709 = DIRECTION('',(2.22044604925E-16,-1.,-1.570092458684E-16));
#710 = ORIENTED_EDGE('',*,*,#711,.T.);
#711 = EDGE_CURVE('',#704,#430,#712,.T.);
#712 = LINE('',#713,#714);
#713 = CARTESIAN_POINT('',(-240.4995998535,335.35000038147,-5.46));
#714 = VECTOR('',#715,1.);
#715 = DIRECTION('',(-1.,-2.22044604925E-16,0.));
#716 = ORIENTED_EDGE('',*,*,#429,.T.);
#717 = ORIENTED_EDGE('',*,*,#528,.F.);
#718 = ORIENTED_EDGE('',*,*,#552,.F.);
#719 = ORIENTED_EDGE('',*,*,#576,.F.);
#720 = ORIENTED_EDGE('',*,*,#600,.F.);
#721 = PLANE('',#722);
#722 = AXIS2_PLACEMENT_3D('',#723,#724,#725);
#723 = CARTESIAN_POINT('',(-245.2368007759,337.70100817297,-5.46));
#724 = DIRECTION('',(-0.,-0.,-1.));
#725 = DIRECTION('',(-1.,0.,0.));
#726 = ADVANCED_FACE('',(#727),#751,.T.);
#727 = FACE_BOUND('',#728,.T.);
#728 = EDGE_LOOP('',(#729,#737,#745));
#729 = ORIENTED_EDGE('',*,*,#730,.T.);
#730 = EDGE_CURVE('',#704,#731,#733,.T.);
#731 = VERTEX_POINT('',#732);
#732 = CARTESIAN_POINT('',(-240.1460498962,338.1464395523,
    -5.106446228027));
#733 = LINE('',#734,#735);
#734 = CARTESIAN_POINT('',(-240.4995998535,335.35000038147,-5.46));
#735 = VECTOR('',#736,1.);
#736 = DIRECTION('',(0.124454940485,0.984388948197,0.124456283317));
#737 = ORIENTED_EDGE('',*,*,#738,.F.);
#738 = EDGE_CURVE('',#739,#731,#741,.T.);
#739 = VERTEX_POINT('',#740);
#740 = CARTESIAN_POINT('',(-239.9995998535,337.79288959503,-4.96));
#741 = LINE('',#742,#743);
#742 = CARTESIAN_POINT('',(-239.9995998535,337.79288959503,-4.96));
#743 = VECTOR('',#744,1.);
#744 = DIRECTION('',(-0.357416756051,0.862851771706,-0.357407446141));
#745 = ORIENTED_EDGE('',*,*,#746,.T.);
#746 = EDGE_CURVE('',#739,#704,#747,.T.);
#747 = LINE('',#748,#749);
#748 = CARTESIAN_POINT('',(-239.9995998535,337.79288959503,-4.96));
#749 = VECTOR('',#750,1.);
#750 = DIRECTION('',(-0.196605114707,-0.960569028098,-0.196605114707));
#751 = PLANE('',#752);
#752 = AXIS2_PLACEMENT_3D('',#753,#754,#755);
#753 = CARTESIAN_POINT('',(-240.2730017938,336.75700766108,
    -5.233400870254));
#754 = DIRECTION('',(0.7071006174,2.523142282778E-06,-0.707112944914));
#755 = DIRECTION('',(0.707112944917,4.598927979997E-17,0.707100617403));
#756 = ADVANCED_FACE('',(#757),#767,.T.);
#757 = FACE_BOUND('',#758,.T.);
#758 = EDGE_LOOP('',(#759,#760,#766));
#759 = ORIENTED_EDGE('',*,*,#703,.F.);
#760 = ORIENTED_EDGE('',*,*,#761,.F.);
#761 = EDGE_CURVE('',#731,#696,#762,.T.);
#762 = LINE('',#763,#764);
#763 = CARTESIAN_POINT('',(-240.1460498962,338.1464395523,
    -5.106446228027));
#764 = VECTOR('',#765,1.);
#765 = DIRECTION('',(-0.577342482457,0.577359613173,-0.577348711808));
#766 = ORIENTED_EDGE('',*,*,#730,.F.);
#767 = PLANE('',#768);
#768 = AXIS2_PLACEMENT_3D('',#769,#770,#771);
#769 = CARTESIAN_POINT('',(-240.4071543494,336.9786168482,
    -5.367553498488));
#770 = DIRECTION('',(0.70711059589,2.680317964183E-16,-0.707102966463));
#771 = DIRECTION('',(-0.707102966463,-4.598549742326E-17,-0.70711059589)
  );
#772 = ADVANCED_FACE('',(#773),#790,.T.);
#773 = FACE_BOUND('',#774,.T.);
#774 = EDGE_LOOP('',(#775,#783,#789));
#775 = ORIENTED_EDGE('',*,*,#776,.T.);
#776 = EDGE_CURVE('',#739,#777,#779,.T.);
#777 = VERTEX_POINT('',#778);
#778 = CARTESIAN_POINT('',(-239.9995998535,334.85000038147,-4.96));
#779 = LINE('',#780,#781);
#780 = CARTESIAN_POINT('',(-239.9995998535,337.79288959503,-4.96));
#781 = VECTOR('',#782,1.);
#782 = DIRECTION('',(2.22044604925E-16,-1.,-1.570092458684E-16));
#783 = ORIENTED_EDGE('',*,*,#784,.T.);
#784 = EDGE_CURVE('',#777,#704,#785,.T.);
#785 = LINE('',#786,#787);
#786 = CARTESIAN_POINT('',(-239.9995998535,334.85000038147,-4.96));
#787 = VECTOR('',#788,1.);
#788 = DIRECTION('',(-0.57735026919,0.57735026919,-0.57735026919));
#789 = ORIENTED_EDGE('',*,*,#746,.F.);
#790 = PLANE('',#791);
#791 = AXIS2_PLACEMENT_3D('',#792,#793,#794);
#792 = CARTESIAN_POINT('',(-240.1337760755,336.25500854199,
    -5.094176221988));
#793 = DIRECTION('',(0.707106781187,2.680315483309E-16,-0.707106781187)
  );
#794 = DIRECTION('',(0.707106781187,4.598694340586E-17,0.707106781187));
#795 = ADVANCED_FACE('',(#796),#851,.T.);
#796 = FACE_BOUND('',#797,.T.);
#797 = EDGE_LOOP('',(#798,#806,#812,#813,#821,#829,#835,#836,#844,#850)
  );
#798 = ORIENTED_EDGE('',*,*,#799,.F.);
#799 = EDGE_CURVE('',#800,#24,#802,.T.);
#800 = VERTEX_POINT('',#801);
#801 = CARTESIAN_POINT('',(-249.6995996627,306.,-5.46));
#802 = LINE('',#803,#804);
#803 = CARTESIAN_POINT('',(-249.6995996627,306.,-5.46));
#804 = VECTOR('',#805,1.);
#805 = DIRECTION('',(1.,2.22044604925E-16,0.));
#806 = ORIENTED_EDGE('',*,*,#807,.F.);
#807 = EDGE_CURVE('',#615,#800,#808,.T.);
#808 = LINE('',#809,#810);
#809 = CARTESIAN_POINT('',(-250.6996001396,307.,-5.46));
#810 = VECTOR('',#811,1.);
#811 = DIRECTION('',(0.707106949774,-0.707106612599,-1.110222759927E-16)
  );
#812 = ORIENTED_EDGE('',*,*,#631,.F.);
#813 = ORIENTED_EDGE('',*,*,#814,.F.);
#814 = EDGE_CURVE('',#815,#624,#817,.T.);
#815 = VERTEX_POINT('',#816);
#816 = CARTESIAN_POINT('',(-249.4995998535,307.75,-5.46));
#817 = LINE('',#818,#819);
#818 = CARTESIAN_POINT('',(-249.4995998535,307.75,-5.46));
#819 = VECTOR('',#820,1.);
#820 = DIRECTION('',(-0.707106921676,0.707106640697,1.110222804044E-16)
  );
#821 = ORIENTED_EDGE('',*,*,#822,.T.);
#822 = EDGE_CURVE('',#815,#823,#825,.T.);
#823 = VERTEX_POINT('',#824);
#824 = CARTESIAN_POINT('',(-249.2996000442,307.5,-5.46));
#825 = LINE('',#826,#827);
#826 = CARTESIAN_POINT('',(-249.4995998535,307.75,-5.46));
#827 = VECTOR('',#828,1.);
#828 = DIRECTION('',(0.624694684289,-0.780869100056,-1.226036685216E-16)
  );
#829 = ORIENTED_EDGE('',*,*,#830,.T.);
#830 = EDGE_CURVE('',#823,#462,#831,.T.);
#831 = LINE('',#832,#833);
#832 = CARTESIAN_POINT('',(-249.2996000442,307.5,-5.46));
#833 = VECTOR('',#834,1.);
#834 = DIRECTION('',(1.,2.22044604925E-16,0.));
#835 = ORIENTED_EDGE('',*,*,#461,.T.);
#836 = ORIENTED_EDGE('',*,*,#837,.F.);
#837 = EDGE_CURVE('',#838,#454,#840,.T.);
#838 = VERTEX_POINT('',#839);
#839 = CARTESIAN_POINT('',(-240.4995998535,309.64999961853,-5.46));
#840 = LINE('',#841,#842);
#841 = CARTESIAN_POINT('',(-240.4995998535,309.64999961853,-5.46));
#842 = VECTOR('',#843,1.);
#843 = DIRECTION('',(-1.,-2.22044604925E-16,0.));
#844 = ORIENTED_EDGE('',*,*,#845,.F.);
#845 = EDGE_CURVE('',#32,#838,#846,.T.);
#846 = LINE('',#847,#848);
#847 = CARTESIAN_POINT('',(-240.4995998535,306.5,-5.46));
#848 = VECTOR('',#849,1.);
#849 = DIRECTION('',(-2.22044604925E-16,1.,1.570092458684E-16));
#850 = ORIENTED_EDGE('',*,*,#31,.F.);
#851 = PLANE('',#852);
#852 = AXIS2_PLACEMENT_3D('',#853,#854,#855);
#853 = CARTESIAN_POINT('',(-245.2368007759,307.29899182702,-5.46));
#854 = DIRECTION('',(-0.,-0.,-1.));
#855 = DIRECTION('',(-1.,0.,0.));
#856 = ADVANCED_FACE('',(#857),#881,.T.);
#857 = FACE_BOUND('',#858,.T.);
#858 = EDGE_LOOP('',(#859,#867,#875));
#859 = ORIENTED_EDGE('',*,*,#860,.F.);
#860 = EDGE_CURVE('',#861,#838,#863,.T.);
#861 = VERTEX_POINT('',#862);
#862 = CARTESIAN_POINT('',(-239.9995998535,310.14999961853,-4.96));
#863 = LINE('',#864,#865);
#864 = CARTESIAN_POINT('',(-239.9995998535,310.14999961853,-4.96));
#865 = VECTOR('',#866,1.);
#866 = DIRECTION('',(-0.57735026919,-0.57735026919,-0.57735026919));
#867 = ORIENTED_EDGE('',*,*,#868,.T.);
#868 = EDGE_CURVE('',#861,#869,#871,.T.);
#869 = VERTEX_POINT('',#870);
#870 = CARTESIAN_POINT('',(-239.9995998535,307.20711040496,-4.96));
#871 = LINE('',#872,#873);
#872 = CARTESIAN_POINT('',(-239.9995998535,310.14999961853,-4.96));
#873 = VECTOR('',#874,1.);
#874 = DIRECTION('',(2.22044604925E-16,-1.,-1.570092458684E-16));
#875 = ORIENTED_EDGE('',*,*,#876,.T.);
#876 = EDGE_CURVE('',#869,#838,#877,.T.);
#877 = LINE('',#878,#879);
#878 = CARTESIAN_POINT('',(-239.9995998535,307.20711040496,-4.96));
#879 = VECTOR('',#880,1.);
#880 = DIRECTION('',(-0.196605114707,0.960569028098,-0.196605114707));
#881 = PLANE('',#882);
#882 = AXIS2_PLACEMENT_3D('',#883,#884,#885);
#883 = CARTESIAN_POINT('',(-240.1337760755,308.744991458,-5.094176221988
    ));
#884 = DIRECTION('',(0.707106781187,2.680315483309E-16,-0.707106781187)
  );
#885 = DIRECTION('',(0.707106781187,4.598694340586E-17,0.707106781187));
#886 = ADVANCED_FACE('',(#887),#904,.T.);
#887 = FACE_BOUND('',#888,.T.);
#888 = EDGE_LOOP('',(#889,#897,#903));
#889 = ORIENTED_EDGE('',*,*,#890,.T.);
#890 = EDGE_CURVE('',#869,#891,#893,.T.);
#891 = VERTEX_POINT('',#892);
#892 = CARTESIAN_POINT('',(-240.1460498962,306.85356044769,
    -5.106446228027));
#893 = LINE('',#894,#895);
#894 = CARTESIAN_POINT('',(-239.9995998535,307.20711040496,-4.96));
#895 = VECTOR('',#896,1.);
#896 = DIRECTION('',(-0.357416756051,-0.862851771706,-0.357407446141));
#897 = ORIENTED_EDGE('',*,*,#898,.T.);
#898 = EDGE_CURVE('',#891,#838,#899,.T.);
#899 = LINE('',#900,#901);
#900 = CARTESIAN_POINT('',(-240.1460498962,306.85356044769,
    -5.106446228027));
#901 = VECTOR('',#902,1.);
#902 = DIRECTION('',(-0.124454940485,0.984388948197,-0.124456283317));
#903 = ORIENTED_EDGE('',*,*,#876,.F.);
#904 = PLANE('',#905);
#905 = AXIS2_PLACEMENT_3D('',#906,#907,#908);
#906 = CARTESIAN_POINT('',(-240.2730017938,308.24299233891,
    -5.233400870254));
#907 = DIRECTION('',(0.7071006174,-2.523142282242E-06,-0.707112944914));
#908 = DIRECTION('',(0.707112944917,4.598927979997E-17,0.707100617403));
#909 = ADVANCED_FACE('',(#910),#920,.T.);
#910 = FACE_BOUND('',#911,.T.);
#911 = EDGE_LOOP('',(#912,#918,#919));
#912 = ORIENTED_EDGE('',*,*,#913,.T.);
#913 = EDGE_CURVE('',#891,#32,#914,.T.);
#914 = LINE('',#915,#916);
#915 = CARTESIAN_POINT('',(-240.1460498962,306.85356044769,
    -5.106446228027));
#916 = VECTOR('',#917,1.);
#917 = DIRECTION('',(-0.577342482457,-0.577359613173,-0.577348711808));
#918 = ORIENTED_EDGE('',*,*,#845,.T.);
#919 = ORIENTED_EDGE('',*,*,#898,.F.);
#920 = PLANE('',#921);
#921 = AXIS2_PLACEMENT_3D('',#922,#923,#924);
#922 = CARTESIAN_POINT('',(-240.4071543494,308.02138315179,
    -5.367553498488));
#923 = DIRECTION('',(0.70711059589,2.680317964183E-16,-0.707102966463));
#924 = DIRECTION('',(-0.707102966463,-4.598549742326E-17,-0.70711059589)
  );
#925 = ADVANCED_FACE('',(#926),#937,.T.);
#926 = FACE_BOUND('',#927,.T.);
#927 = EDGE_LOOP('',(#928,#929,#935,#936));
#928 = ORIENTED_EDGE('',*,*,#288,.F.);
#929 = ORIENTED_EDGE('',*,*,#930,.F.);
#930 = EDGE_CURVE('',#696,#265,#931,.T.);
#931 = LINE('',#932,#933);
#932 = CARTESIAN_POINT('',(-240.4995998535,338.5,-5.46));
#933 = VECTOR('',#934,1.);
#934 = DIRECTION('',(3.486305596842E-32,-1.570092458684E-16,1.));
#935 = ORIENTED_EDGE('',*,*,#695,.F.);
#936 = ORIENTED_EDGE('',*,*,#671,.F.);
#937 = PLANE('',#938);
#938 = AXIS2_PLACEMENT_3D('',#939,#940,#941);
#939 = CARTESIAN_POINT('',(-240.7495998535,338.75,-2.96));
#940 = DIRECTION('',(0.707106781187,0.707106781187,0.));
#941 = DIRECTION('',(-0.707106781187,0.707106781187,0.));
#942 = ADVANCED_FACE('',(#943),#954,.T.);
#943 = FACE_BOUND('',#944,.T.);
#944 = EDGE_LOOP('',(#945,#946,#947,#953));
#945 = ORIENTED_EDGE('',*,*,#930,.T.);
#946 = ORIENTED_EDGE('',*,*,#264,.T.);
#947 = ORIENTED_EDGE('',*,*,#948,.T.);
#948 = EDGE_CURVE('',#210,#731,#949,.T.);
#949 = LINE('',#950,#951);
#950 = CARTESIAN_POINT('',(-240.1460498962,338.1464395523,
    -0.813553771973));
#951 = VECTOR('',#952,1.);
#952 = DIRECTION('',(-3.486305596842E-32,1.570092458684E-16,-1.));
#953 = ORIENTED_EDGE('',*,*,#761,.T.);
#954 = PLANE('',#955);
#955 = AXIS2_PLACEMENT_3D('',#956,#957,#958);
#956 = CARTESIAN_POINT('',(-240.3347095655,338.33510481944,-2.96));
#957 = DIRECTION('',(0.707117271472,0.707096290745,0.));
#958 = DIRECTION('',(-0.707096290745,0.707117271472,0.));
#959 = ADVANCED_FACE('',(#960),#971,.T.);
#960 = FACE_BOUND('',#961,.T.);
#961 = EDGE_LOOP('',(#962,#963,#964,#965));
#962 = ORIENTED_EDGE('',*,*,#738,.T.);
#963 = ORIENTED_EDGE('',*,*,#948,.F.);
#964 = ORIENTED_EDGE('',*,*,#209,.T.);
#965 = ORIENTED_EDGE('',*,*,#966,.T.);
#966 = EDGE_CURVE('',#212,#739,#967,.T.);
#967 = LINE('',#968,#969);
#968 = CARTESIAN_POINT('',(-239.9995998535,337.79288959503,-0.96));
#969 = VECTOR('',#970,1.);
#970 = DIRECTION('',(-3.486305596842E-32,1.570092458684E-16,-1.));
#971 = PLANE('',#972);
#972 = AXIS2_PLACEMENT_3D('',#973,#974,#975);
#973 = CARTESIAN_POINT('',(-240.0751784912,337.97534651776,-2.96));
#974 = DIRECTION('',(0.92387504658,0.382694262182,0.));
#975 = DIRECTION('',(-0.382694262182,0.92387504658,0.));
#976 = ADVANCED_FACE('',(#977),#995,.T.);
#977 = FACE_BOUND('',#978,.T.);
#978 = EDGE_LOOP('',(#979,#980,#981,#989));
#979 = ORIENTED_EDGE('',*,*,#437,.T.);
#980 = ORIENTED_EDGE('',*,*,#711,.F.);
#981 = ORIENTED_EDGE('',*,*,#982,.T.);
#982 = EDGE_CURVE('',#704,#983,#985,.T.);
#983 = VERTEX_POINT('',#984);
#984 = CARTESIAN_POINT('',(-240.4995998535,335.35000038147,
    -15.80999847412));
#985 = LINE('',#986,#987);
#986 = CARTESIAN_POINT('',(-240.4995998535,335.35000038147,-5.46));
#987 = VECTOR('',#988,1.);
#988 = DIRECTION('',(-3.486305596842E-32,1.570092458684E-16,-1.));
#989 = ORIENTED_EDGE('',*,*,#990,.T.);
#990 = EDGE_CURVE('',#983,#438,#991,.T.);
#991 = LINE('',#992,#993);
#992 = CARTESIAN_POINT('',(-240.4995998535,335.35000038147,
    -15.80999847412));
#993 = VECTOR('',#994,1.);
#994 = DIRECTION('',(-1.,-2.22044604925E-16,0.));
#995 = PLANE('',#996);
#996 = AXIS2_PLACEMENT_3D('',#997,#998,#999);
#997 = CARTESIAN_POINT('',(-241.1996001396,335.35000038147,
    -10.63499923706));
#998 = DIRECTION('',(0.,1.,0.));
#999 = DIRECTION('',(0.,-0.,1.));
#1000 = ADVANCED_FACE('',(#1001),#1019,.T.);
#1001 = FACE_BOUND('',#1002,.T.);
#1002 = EDGE_LOOP('',(#1003,#1011,#1012,#1013));
#1003 = ORIENTED_EDGE('',*,*,#1004,.T.);
#1004 = EDGE_CURVE('',#1005,#220,#1007,.T.);
#1005 = VERTEX_POINT('',#1006);
#1006 = CARTESIAN_POINT('',(-240.4995998535,335.35000038147,
    9.889990844727));
#1007 = LINE('',#1008,#1009);
#1008 = CARTESIAN_POINT('',(-240.4995998535,335.35000038147,
    9.889990844727));
#1009 = VECTOR('',#1010,1.);
#1010 = DIRECTION('',(-3.486305596842E-32,1.570092458684E-16,-1.));
#1011 = ORIENTED_EDGE('',*,*,#352,.F.);
#1012 = ORIENTED_EDGE('',*,*,#414,.T.);
#1013 = ORIENTED_EDGE('',*,*,#1014,.T.);
#1014 = EDGE_CURVE('',#407,#1005,#1015,.T.);
#1015 = LINE('',#1016,#1017);
#1016 = CARTESIAN_POINT('',(-241.8996004257,335.35000038147,
    9.889990844727));
#1017 = VECTOR('',#1018,1.);
#1018 = DIRECTION('',(1.,2.22044604925E-16,0.));
#1019 = PLANE('',#1020);
#1020 = AXIS2_PLACEMENT_3D('',#1021,#1022,#1023);
#1021 = CARTESIAN_POINT('',(-241.1996001396,335.35000038147,
    4.714995422363));
#1022 = DIRECTION('',(0.,1.,0.));
#1023 = DIRECTION('',(0.,-0.,1.));
#1024 = ADVANCED_FACE('',(#1025),#1043,.T.);
#1025 = FACE_BOUND('',#1026,.T.);
#1026 = EDGE_LOOP('',(#1027,#1028,#1036,#1042));
#1027 = ORIENTED_EDGE('',*,*,#1004,.F.);
#1028 = ORIENTED_EDGE('',*,*,#1029,.T.);
#1029 = EDGE_CURVE('',#1005,#1030,#1032,.T.);
#1030 = VERTEX_POINT('',#1031);
#1031 = CARTESIAN_POINT('',(-239.9995998535,334.85000038147,
    9.389998474121));
#1032 = LINE('',#1033,#1034);
#1033 = CARTESIAN_POINT('',(-240.4995998535,335.35000038147,
    9.889990844727));
#1034 = VECTOR('',#1035,1.);
#1035 = DIRECTION('',(0.577353205745,-0.577353205745,-0.577344396034));
#1036 = ORIENTED_EDGE('',*,*,#1037,.T.);
#1037 = EDGE_CURVE('',#1030,#242,#1038,.T.);
#1038 = LINE('',#1039,#1040);
#1039 = CARTESIAN_POINT('',(-239.9995998535,334.85000038147,
    9.389998474121));
#1040 = VECTOR('',#1041,1.);
#1041 = DIRECTION('',(-3.486305596842E-32,1.570092458684E-16,-1.));
#1042 = ORIENTED_EDGE('',*,*,#241,.F.);
#1043 = PLANE('',#1044);
#1044 = AXIS2_PLACEMENT_3D('',#1045,#1046,#1047);
#1045 = CARTESIAN_POINT('',(-240.2495997684,335.10000029644,
    4.464996228509));
#1046 = DIRECTION('',(0.707106781187,0.707106781187,0.));
#1047 = DIRECTION('',(-0.707106781187,0.707106781187,0.));
#1048 = ADVANCED_FACE('',(#1049),#1067,.T.);
#1049 = FACE_BOUND('',#1050,.T.);
#1050 = EDGE_LOOP('',(#1051,#1059,#1060,#1061));
#1051 = ORIENTED_EDGE('',*,*,#1052,.T.);
#1052 = EDGE_CURVE('',#1053,#983,#1055,.T.);
#1053 = VERTEX_POINT('',#1054);
#1054 = CARTESIAN_POINT('',(-239.9995998535,334.85000038147,
    -15.30999847412));
#1055 = LINE('',#1056,#1057);
#1056 = CARTESIAN_POINT('',(-239.9995998535,334.85000038147,
    -15.30999847412));
#1057 = VECTOR('',#1058,1.);
#1058 = DIRECTION('',(-0.57735026919,0.57735026919,-0.57735026919));
#1059 = ORIENTED_EDGE('',*,*,#982,.F.);
#1060 = ORIENTED_EDGE('',*,*,#784,.F.);
#1061 = ORIENTED_EDGE('',*,*,#1062,.T.);
#1062 = EDGE_CURVE('',#777,#1053,#1063,.T.);
#1063 = LINE('',#1064,#1065);
#1064 = CARTESIAN_POINT('',(-239.9995998535,334.85000038147,-4.96));
#1065 = VECTOR('',#1066,1.);
#1066 = DIRECTION('',(-3.486305596842E-32,1.570092458684E-16,-1.));
#1067 = PLANE('',#1068);
#1068 = AXIS2_PLACEMENT_3D('',#1069,#1070,#1071);
#1069 = CARTESIAN_POINT('',(-240.2495998535,335.10000038147,
    -10.38499923706));
#1070 = DIRECTION('',(0.707106781187,0.707106781187,0.));
#1071 = DIRECTION('',(0.707106781187,-0.707106781187,0.));
#1072 = ADVANCED_FACE('',(#1073),#1091,.T.);
#1073 = FACE_BOUND('',#1074,.T.);
#1074 = EDGE_LOOP('',(#1075,#1083,#1084,#1085));
#1075 = ORIENTED_EDGE('',*,*,#1076,.T.);
#1076 = EDGE_CURVE('',#1077,#1005,#1079,.T.);
#1077 = VERTEX_POINT('',#1078);
#1078 = CARTESIAN_POINT('',(-240.4995998535,325.,9.889990844727));
#1079 = LINE('',#1080,#1081);
#1080 = CARTESIAN_POINT('',(-240.4995998535,325.,9.889990844727));
#1081 = VECTOR('',#1082,1.);
#1082 = DIRECTION('',(-2.22044604925E-16,1.,1.570092458684E-16));
#1083 = ORIENTED_EDGE('',*,*,#1014,.F.);
#1084 = ORIENTED_EDGE('',*,*,#406,.T.);
#1085 = ORIENTED_EDGE('',*,*,#1086,.T.);
#1086 = EDGE_CURVE('',#399,#1077,#1087,.T.);
#1087 = LINE('',#1088,#1089);
#1088 = CARTESIAN_POINT('',(-241.8996004257,325.,9.889990844727));
#1089 = VECTOR('',#1090,1.);
#1090 = DIRECTION('',(1.,2.22044604925E-16,0.));
#1091 = PLANE('',#1092);
#1092 = AXIS2_PLACEMENT_3D('',#1093,#1094,#1095);
#1093 = CARTESIAN_POINT('',(-241.1996001396,330.17500019073,
    9.889990844727));
#1094 = DIRECTION('',(0.,0.,1.));
#1095 = DIRECTION('',(1.,0.,-0.));
#1096 = ADVANCED_FACE('',(#1097),#1122,.T.);
#1097 = FACE_BOUND('',#1098,.T.);
#1098 = EDGE_LOOP('',(#1099,#1109,#1115,#1116));
#1099 = ORIENTED_EDGE('',*,*,#1100,.T.);
#1100 = EDGE_CURVE('',#1101,#1103,#1105,.T.);
#1101 = VERTEX_POINT('',#1102);
#1102 = CARTESIAN_POINT('',(-240.4995998535,309.64999961853,
    9.889990844727));
#1103 = VERTEX_POINT('',#1104);
#1104 = CARTESIAN_POINT('',(-240.4995998535,320.,9.889990844727));
#1105 = LINE('',#1106,#1107);
#1106 = CARTESIAN_POINT('',(-240.4995998535,309.64999961853,
    9.889990844727));
#1107 = VECTOR('',#1108,1.);
#1108 = DIRECTION('',(-2.22044604925E-16,1.,1.570092458684E-16));
#1109 = ORIENTED_EDGE('',*,*,#1110,.F.);
#1110 = EDGE_CURVE('',#375,#1103,#1111,.T.);
#1111 = LINE('',#1112,#1113);
#1112 = CARTESIAN_POINT('',(-241.8996004257,320.,9.889990844727));
#1113 = VECTOR('',#1114,1.);
#1114 = DIRECTION('',(1.,2.22044604925E-16,0.));
#1115 = ORIENTED_EDGE('',*,*,#374,.T.);
#1116 = ORIENTED_EDGE('',*,*,#1117,.T.);
#1117 = EDGE_CURVE('',#367,#1101,#1118,.T.);
#1118 = LINE('',#1119,#1120);
#1119 = CARTESIAN_POINT('',(-241.8996004257,309.64999961853,
    9.889990844727));
#1120 = VECTOR('',#1121,1.);
#1121 = DIRECTION('',(1.,2.22044604925E-16,0.));
#1122 = PLANE('',#1123);
#1123 = AXIS2_PLACEMENT_3D('',#1124,#1125,#1126);
#1124 = CARTESIAN_POINT('',(-241.1996001396,314.82499980926,
    9.889990844727));
#1125 = DIRECTION('',(0.,0.,1.));
#1126 = DIRECTION('',(1.,0.,-0.));
#1127 = ADVANCED_FACE('',(#1128),#1146,.T.);
#1128 = FACE_BOUND('',#1129,.T.);
#1129 = EDGE_LOOP('',(#1130,#1131,#1132,#1140));
#1130 = ORIENTED_EDGE('',*,*,#1029,.F.);
#1131 = ORIENTED_EDGE('',*,*,#1076,.F.);
#1132 = ORIENTED_EDGE('',*,*,#1133,.T.);
#1133 = EDGE_CURVE('',#1077,#1134,#1136,.T.);
#1134 = VERTEX_POINT('',#1135);
#1135 = CARTESIAN_POINT('',(-239.9995998535,324.5,9.389998474121));
#1136 = LINE('',#1137,#1138);
#1137 = CARTESIAN_POINT('',(-240.4995998535,325.,9.889990844727));
#1138 = VECTOR('',#1139,1.);
#1139 = DIRECTION('',(0.577353205745,-0.577353205745,-0.577344396034));
#1140 = ORIENTED_EDGE('',*,*,#1141,.T.);
#1141 = EDGE_CURVE('',#1134,#1030,#1142,.T.);
#1142 = LINE('',#1143,#1144);
#1143 = CARTESIAN_POINT('',(-239.9995998535,324.5,9.389998474121));
#1144 = VECTOR('',#1145,1.);
#1145 = DIRECTION('',(-2.22044604925E-16,1.,1.570092458684E-16));
#1146 = PLANE('',#1147);
#1147 = AXIS2_PLACEMENT_3D('',#1148,#1149,#1150);
#1148 = CARTESIAN_POINT('',(-240.2495998535,329.92500019073,
    9.639994659424));
#1149 = DIRECTION('',(0.707101386328,0.,0.707112176004));
#1150 = DIRECTION('',(0.707112176004,0.,-0.707101386328));
#1151 = ADVANCED_FACE('',(#1152),#1176,.T.);
#1152 = FACE_BOUND('',#1153,.T.);
#1153 = EDGE_LOOP('',(#1154,#1162,#1170));
#1154 = ORIENTED_EDGE('',*,*,#1155,.F.);
#1155 = EDGE_CURVE('',#1156,#1077,#1158,.T.);
#1156 = VERTEX_POINT('',#1157);
#1157 = CARTESIAN_POINT('',(-240.4995998535,325.,11.040015258789));
#1158 = LINE('',#1159,#1160);
#1159 = CARTESIAN_POINT('',(-240.4995998535,325.,11.040015258789));
#1160 = VECTOR('',#1161,1.);
#1161 = DIRECTION('',(-3.486305596842E-32,1.570092458684E-16,-1.));
#1162 = ORIENTED_EDGE('',*,*,#1163,.T.);
#1163 = EDGE_CURVE('',#1156,#1164,#1166,.T.);
#1164 = VERTEX_POINT('',#1165);
#1165 = CARTESIAN_POINT('',(-240.1460498962,324.64644002914,
    10.686446228027));
#1166 = LINE('',#1167,#1168);
#1167 = CARTESIAN_POINT('',(-240.4995998535,325.,11.040015258789));
#1168 = VECTOR('',#1169,1.);
#1169 = DIRECTION('',(0.577334436336,-0.577350788155,-0.577365582657));
#1170 = ORIENTED_EDGE('',*,*,#1171,.F.);
#1171 = EDGE_CURVE('',#1077,#1164,#1172,.T.);
#1172 = LINE('',#1173,#1174);
#1173 = CARTESIAN_POINT('',(-240.4995998535,325.,9.889990844727));
#1174 = VECTOR('',#1175,1.);
#1175 = DIRECTION('',(0.375958855561,-0.375969503827,0.846936757449));
#1176 = PLANE('',#1177);
#1177 = AXIS2_PLACEMENT_3D('',#1178,#1179,#1180);
#1178 = CARTESIAN_POINT('',(-240.3980414327,324.89843870276,
    10.493721624559));
#1179 = DIRECTION('',(0.707116794651,0.70709676758,1.110207302337E-16));
#1180 = DIRECTION('',(0.70709676758,-0.707116794651,-1.110238746691E-16)
  );
#1181 = ADVANCED_FACE('',(#1182),#1199,.T.);
#1182 = FACE_BOUND('',#1183,.T.);
#1183 = EDGE_LOOP('',(#1184,#1185,#1193));
#1184 = ORIENTED_EDGE('',*,*,#1171,.T.);
#1185 = ORIENTED_EDGE('',*,*,#1186,.T.);
#1186 = EDGE_CURVE('',#1164,#1187,#1189,.T.);
#1187 = VERTEX_POINT('',#1188);
#1188 = CARTESIAN_POINT('',(-239.9995998535,324.5,10.332892456055));
#1189 = LINE('',#1190,#1191);
#1190 = CARTESIAN_POINT('',(-240.1460498962,324.64644002914,
    10.686446228027));
#1191 = VECTOR('',#1192,1.);
#1192 = DIRECTION('',(0.357415817423,-0.357391378974,-0.862858815619));
#1193 = ORIENTED_EDGE('',*,*,#1194,.T.);
#1194 = EDGE_CURVE('',#1187,#1077,#1195,.T.);
#1195 = LINE('',#1196,#1197);
#1196 = CARTESIAN_POINT('',(-239.9995998535,324.5,10.332892456055));
#1197 = VECTOR('',#1198,1.);
#1198 = DIRECTION('',(-0.599259459539,0.599259459539,-0.530825960467));
#1199 = PLANE('',#1200);
#1200 = AXIS2_PLACEMENT_3D('',#1201,#1202,#1203);
#1201 = CARTESIAN_POINT('',(-240.2479644535,324.74836150561,
    10.262236763863));
#1202 = DIRECTION('',(0.707100291942,0.70711327022,1.465142369698E-05));
#1203 = DIRECTION('',(-0.707113270296,0.707100292018,1.110195895371E-16)
  );
#1204 = ADVANCED_FACE('',(#1205),#1215,.T.);
#1205 = FACE_BOUND('',#1206,.T.);
#1206 = EDGE_LOOP('',(#1207,#1213,#1214));
#1207 = ORIENTED_EDGE('',*,*,#1208,.T.);
#1208 = EDGE_CURVE('',#1187,#1134,#1209,.T.);
#1209 = LINE('',#1210,#1211);
#1210 = CARTESIAN_POINT('',(-239.9995998535,324.5,10.332892456055));
#1211 = VECTOR('',#1212,1.);
#1212 = DIRECTION('',(-3.486305596842E-32,1.570092458684E-16,-1.));
#1213 = ORIENTED_EDGE('',*,*,#1133,.F.);
#1214 = ORIENTED_EDGE('',*,*,#1194,.F.);
#1215 = PLANE('',#1216);
#1216 = AXIS2_PLACEMENT_3D('',#1217,#1218,#1219);
#1217 = CARTESIAN_POINT('',(-240.1604213844,324.66082153093,
    9.867803688355));
#1218 = DIRECTION('',(0.707106781187,0.707106781187,1.110223024625E-16)
  );
#1219 = DIRECTION('',(-0.707106781187,0.707106781187,1.110223024625E-16)
  );
#1220 = ADVANCED_FACE('',(#1221),#1246,.T.);
#1221 = FACE_BOUND('',#1222,.T.);
#1222 = EDGE_LOOP('',(#1223,#1224,#1232,#1240));
#1223 = ORIENTED_EDGE('',*,*,#1100,.F.);
#1224 = ORIENTED_EDGE('',*,*,#1225,.T.);
#1225 = EDGE_CURVE('',#1101,#1226,#1228,.T.);
#1226 = VERTEX_POINT('',#1227);
#1227 = CARTESIAN_POINT('',(-239.9995998535,310.14999961853,
    9.389998474121));
#1228 = LINE('',#1229,#1230);
#1229 = CARTESIAN_POINT('',(-240.4995998535,309.64999961853,
    9.889990844727));
#1230 = VECTOR('',#1231,1.);
#1231 = DIRECTION('',(0.577353205745,0.577353205745,-0.577344396034));
#1232 = ORIENTED_EDGE('',*,*,#1233,.T.);
#1233 = EDGE_CURVE('',#1226,#1234,#1236,.T.);
#1234 = VERTEX_POINT('',#1235);
#1235 = CARTESIAN_POINT('',(-239.9995998535,320.5,9.389998474121));
#1236 = LINE('',#1237,#1238);
#1237 = CARTESIAN_POINT('',(-239.9995998535,310.14999961853,
    9.389998474121));
#1238 = VECTOR('',#1239,1.);
#1239 = DIRECTION('',(-2.22044604925E-16,1.,1.570092458684E-16));
#1240 = ORIENTED_EDGE('',*,*,#1241,.F.);
#1241 = EDGE_CURVE('',#1103,#1234,#1242,.T.);
#1242 = LINE('',#1243,#1244);
#1243 = CARTESIAN_POINT('',(-240.4995998535,320.,9.889990844727));
#1244 = VECTOR('',#1245,1.);
#1245 = DIRECTION('',(0.577353205745,0.577353205745,-0.577344396034));
#1246 = PLANE('',#1247);
#1247 = AXIS2_PLACEMENT_3D('',#1248,#1249,#1250);
#1248 = CARTESIAN_POINT('',(-240.2495998535,315.07499980926,
    9.639994659424));
#1249 = DIRECTION('',(0.707101386328,0.,0.707112176004));
#1250 = DIRECTION('',(0.707112176004,0.,-0.707101386328));
#1251 = ADVANCED_FACE('',(#1252),#1276,.T.);
#1252 = FACE_BOUND('',#1253,.T.);
#1253 = EDGE_LOOP('',(#1254,#1264,#1270));
#1254 = ORIENTED_EDGE('',*,*,#1255,.F.);
#1255 = EDGE_CURVE('',#1256,#1258,#1260,.T.);
#1256 = VERTEX_POINT('',#1257);
#1257 = CARTESIAN_POINT('',(-240.1460498962,320.35355997085,
    10.686446228027));
#1258 = VERTEX_POINT('',#1259);
#1259 = CARTESIAN_POINT('',(-239.9995998535,320.5,10.332892456055));
#1260 = LINE('',#1261,#1262);
#1261 = CARTESIAN_POINT('',(-240.1460498962,320.35355997085,
    10.686446228027));
#1262 = VECTOR('',#1263,1.);
#1263 = DIRECTION('',(0.357415817423,0.357391378974,-0.862858815619));
#1264 = ORIENTED_EDGE('',*,*,#1265,.T.);
#1265 = EDGE_CURVE('',#1256,#1103,#1266,.T.);
#1266 = LINE('',#1267,#1268);
#1267 = CARTESIAN_POINT('',(-240.1460498962,320.35355997085,
    10.686446228027));
#1268 = VECTOR('',#1269,1.);
#1269 = DIRECTION('',(-0.375958855561,-0.375969503827,-0.846936757449));
#1270 = ORIENTED_EDGE('',*,*,#1271,.F.);
#1271 = EDGE_CURVE('',#1258,#1103,#1272,.T.);
#1272 = LINE('',#1273,#1274);
#1273 = CARTESIAN_POINT('',(-239.9995998535,320.5,10.332892456055));
#1274 = VECTOR('',#1275,1.);
#1275 = DIRECTION('',(-0.599259459539,-0.599259459539,-0.530825960467));
#1276 = PLANE('',#1277);
#1277 = AXIS2_PLACEMENT_3D('',#1278,#1279,#1280);
#1278 = CARTESIAN_POINT('',(-240.2479644535,320.25163849438,
    10.262236763863));
#1279 = DIRECTION('',(0.707100291942,-0.70711327022,1.465142369703E-05)
  );
#1280 = DIRECTION('',(0.707113270296,0.707100292018,1.110221306359E-16)
  );
#1281 = ADVANCED_FACE('',(#1282),#1292,.T.);
#1282 = FACE_BOUND('',#1283,.T.);
#1283 = EDGE_LOOP('',(#1284,#1285,#1291));
#1284 = ORIENTED_EDGE('',*,*,#1241,.T.);
#1285 = ORIENTED_EDGE('',*,*,#1286,.T.);
#1286 = EDGE_CURVE('',#1234,#1258,#1287,.T.);
#1287 = LINE('',#1288,#1289);
#1288 = CARTESIAN_POINT('',(-239.9995998535,320.5,9.389998474121));
#1289 = VECTOR('',#1290,1.);
#1290 = DIRECTION('',(3.486305596842E-32,-1.570092458684E-16,1.));
#1291 = ORIENTED_EDGE('',*,*,#1271,.T.);
#1292 = PLANE('',#1293);
#1293 = AXIS2_PLACEMENT_3D('',#1294,#1295,#1296);
#1294 = CARTESIAN_POINT('',(-240.1604213844,320.33917846906,
    9.867803688355));
#1295 = DIRECTION('',(0.707106781187,-0.707106781187,-1.110223024625E-16
    ));
#1296 = DIRECTION('',(-0.707106781187,-0.707106781187,
    -1.110223024625E-16));
#1297 = ADVANCED_FACE('',(#1298),#1315,.T.);
#1298 = FACE_BOUND('',#1299,.T.);
#1299 = EDGE_LOOP('',(#1300,#1308,#1314));
#1300 = ORIENTED_EDGE('',*,*,#1301,.F.);
#1301 = EDGE_CURVE('',#1302,#1256,#1304,.T.);
#1302 = VERTEX_POINT('',#1303);
#1303 = CARTESIAN_POINT('',(-240.4995998535,320.,11.040015258789));
#1304 = LINE('',#1305,#1306);
#1305 = CARTESIAN_POINT('',(-240.4995998535,320.,11.040015258789));
#1306 = VECTOR('',#1307,1.);
#1307 = DIRECTION('',(0.577334436336,0.577350788155,-0.577365582657));
#1308 = ORIENTED_EDGE('',*,*,#1309,.F.);
#1309 = EDGE_CURVE('',#1103,#1302,#1310,.T.);
#1310 = LINE('',#1311,#1312);
#1311 = CARTESIAN_POINT('',(-240.4995998535,320.,9.889990844727));
#1312 = VECTOR('',#1313,1.);
#1313 = DIRECTION('',(3.486305596842E-32,-1.570092458684E-16,1.));
#1314 = ORIENTED_EDGE('',*,*,#1265,.F.);
#1315 = PLANE('',#1316);
#1316 = AXIS2_PLACEMENT_3D('',#1317,#1318,#1319);
#1317 = CARTESIAN_POINT('',(-240.3980414327,320.10156129723,
    10.493721624559));
#1318 = DIRECTION('',(0.707116794651,-0.70709676758,-1.110207302337E-16)
  );
#1319 = DIRECTION('',(-0.70709676758,-0.707116794651,-1.110238746691E-16
    ));
#1320 = ADVANCED_FACE('',(#1321),#1339,.T.);
#1321 = FACE_BOUND('',#1322,.T.);
#1322 = EDGE_LOOP('',(#1323,#1324,#1325,#1333));
#1323 = ORIENTED_EDGE('',*,*,#445,.T.);
#1324 = ORIENTED_EDGE('',*,*,#990,.F.);
#1325 = ORIENTED_EDGE('',*,*,#1326,.T.);
#1326 = EDGE_CURVE('',#983,#1327,#1329,.T.);
#1327 = VERTEX_POINT('',#1328);
#1328 = CARTESIAN_POINT('',(-240.4995998535,309.64999961853,
    -15.80999847412));
#1329 = LINE('',#1330,#1331);
#1330 = CARTESIAN_POINT('',(-240.4995998535,335.35000038147,
    -15.80999847412));
#1331 = VECTOR('',#1332,1.);
#1332 = DIRECTION('',(2.22044604925E-16,-1.,-1.570092458684E-16));
#1333 = ORIENTED_EDGE('',*,*,#1334,.T.);
#1334 = EDGE_CURVE('',#1327,#446,#1335,.T.);
#1335 = LINE('',#1336,#1337);
#1336 = CARTESIAN_POINT('',(-240.4995998535,309.64999961853,
    -15.80999847412));
#1337 = VECTOR('',#1338,1.);
#1338 = DIRECTION('',(-1.,-2.22044604925E-16,0.));
#1339 = PLANE('',#1340);
#1340 = AXIS2_PLACEMENT_3D('',#1341,#1342,#1343);
#1341 = CARTESIAN_POINT('',(-241.1996001396,322.5,-15.80999847412));
#1342 = DIRECTION('',(-0.,-0.,-1.));
#1343 = DIRECTION('',(-1.,0.,0.));
#1344 = ADVANCED_FACE('',(#1345),#1363,.T.);
#1345 = FACE_BOUND('',#1346,.T.);
#1346 = EDGE_LOOP('',(#1347,#1348,#1349,#1357));
#1347 = ORIENTED_EDGE('',*,*,#1326,.F.);
#1348 = ORIENTED_EDGE('',*,*,#1052,.F.);
#1349 = ORIENTED_EDGE('',*,*,#1350,.T.);
#1350 = EDGE_CURVE('',#1053,#1351,#1353,.T.);
#1351 = VERTEX_POINT('',#1352);
#1352 = CARTESIAN_POINT('',(-239.9995998535,310.14999961853,
    -15.30999847412));
#1353 = LINE('',#1354,#1355);
#1354 = CARTESIAN_POINT('',(-239.9995998535,334.85000038147,
    -15.30999847412));
#1355 = VECTOR('',#1356,1.);
#1356 = DIRECTION('',(2.22044604925E-16,-1.,-1.570092458684E-16));
#1357 = ORIENTED_EDGE('',*,*,#1358,.T.);
#1358 = EDGE_CURVE('',#1351,#1327,#1359,.T.);
#1359 = LINE('',#1360,#1361);
#1360 = CARTESIAN_POINT('',(-239.9995998535,310.14999961853,
    -15.30999847412));
#1361 = VECTOR('',#1362,1.);
#1362 = DIRECTION('',(-0.57735026919,-0.57735026919,-0.57735026919));
#1363 = PLANE('',#1364);
#1364 = AXIS2_PLACEMENT_3D('',#1365,#1366,#1367);
#1365 = CARTESIAN_POINT('',(-240.2543953677,322.5,-15.56479398837));
#1366 = DIRECTION('',(0.707106781187,0.,-0.707106781187));
#1367 = DIRECTION('',(0.707106781187,0.,0.707106781187));
#1368 = ADVANCED_FACE('',(#1369),#1380,.T.);
#1369 = FACE_BOUND('',#1370,.T.);
#1370 = EDGE_LOOP('',(#1371,#1372,#1373,#1379));
#1371 = ORIENTED_EDGE('',*,*,#453,.T.);
#1372 = ORIENTED_EDGE('',*,*,#1334,.F.);
#1373 = ORIENTED_EDGE('',*,*,#1374,.T.);
#1374 = EDGE_CURVE('',#1327,#838,#1375,.T.);
#1375 = LINE('',#1376,#1377);
#1376 = CARTESIAN_POINT('',(-240.4995998535,309.64999961853,
    -15.80999847412));
#1377 = VECTOR('',#1378,1.);
#1378 = DIRECTION('',(3.486305596842E-32,-1.570092458684E-16,1.));
#1379 = ORIENTED_EDGE('',*,*,#837,.T.);
#1380 = PLANE('',#1381);
#1381 = AXIS2_PLACEMENT_3D('',#1382,#1383,#1384);
#1382 = CARTESIAN_POINT('',(-241.1996001396,309.64999961853,
    -10.63499923706));
#1383 = DIRECTION('',(-0.,-1.,-0.));
#1384 = DIRECTION('',(0.,0.,-1.));
#1385 = ADVANCED_FACE('',(#1386),#1397,.T.);
#1386 = FACE_BOUND('',#1387,.T.);
#1387 = EDGE_LOOP('',(#1388,#1394,#1395,#1396));
#1388 = ORIENTED_EDGE('',*,*,#1389,.T.);
#1389 = EDGE_CURVE('',#79,#1101,#1390,.T.);
#1390 = LINE('',#1391,#1392);
#1391 = CARTESIAN_POINT('',(-240.4995998535,309.64999961853,-0.46));
#1392 = VECTOR('',#1393,1.);
#1393 = DIRECTION('',(3.486305596842E-32,-1.570092458684E-16,1.));
#1394 = ORIENTED_EDGE('',*,*,#1117,.F.);
#1395 = ORIENTED_EDGE('',*,*,#366,.T.);
#1396 = ORIENTED_EDGE('',*,*,#86,.T.);
#1397 = PLANE('',#1398);
#1398 = AXIS2_PLACEMENT_3D('',#1399,#1400,#1401);
#1399 = CARTESIAN_POINT('',(-241.1996001396,309.64999961853,
    4.714995422363));
#1400 = DIRECTION('',(-0.,-1.,-0.));
#1401 = DIRECTION('',(0.,0.,-1.));
#1402 = ADVANCED_FACE('',(#1403),#1414,.T.);
#1403 = FACE_BOUND('',#1404,.T.);
#1404 = EDGE_LOOP('',(#1405,#1406,#1407,#1413));
#1405 = ORIENTED_EDGE('',*,*,#1374,.F.);
#1406 = ORIENTED_EDGE('',*,*,#1358,.F.);
#1407 = ORIENTED_EDGE('',*,*,#1408,.T.);
#1408 = EDGE_CURVE('',#1351,#861,#1409,.T.);
#1409 = LINE('',#1410,#1411);
#1410 = CARTESIAN_POINT('',(-239.9995998535,310.14999961853,
    -15.30999847412));
#1411 = VECTOR('',#1412,1.);
#1412 = DIRECTION('',(3.486305596842E-32,-1.570092458684E-16,1.));
#1413 = ORIENTED_EDGE('',*,*,#860,.T.);
#1414 = PLANE('',#1415);
#1415 = AXIS2_PLACEMENT_3D('',#1416,#1417,#1418);
#1416 = CARTESIAN_POINT('',(-240.2495998535,309.89999961853,
    -10.38499923706));
#1417 = DIRECTION('',(0.707106781187,-0.707106781187,0.));
#1418 = DIRECTION('',(0.707106781187,0.707106781187,0.));
#1419 = ADVANCED_FACE('',(#1420),#1431,.T.);
#1420 = FACE_BOUND('',#1421,.T.);
#1421 = EDGE_LOOP('',(#1422,#1423,#1424,#1425));
#1422 = ORIENTED_EDGE('',*,*,#1225,.F.);
#1423 = ORIENTED_EDGE('',*,*,#1389,.F.);
#1424 = ORIENTED_EDGE('',*,*,#150,.T.);
#1425 = ORIENTED_EDGE('',*,*,#1426,.T.);
#1426 = EDGE_CURVE('',#143,#1226,#1427,.T.);
#1427 = LINE('',#1428,#1429);
#1428 = CARTESIAN_POINT('',(-239.9995998535,310.14999961853,-0.96));
#1429 = VECTOR('',#1430,1.);
#1430 = DIRECTION('',(3.486305596842E-32,-1.570092458684E-16,1.));
#1431 = PLANE('',#1432);
#1432 = AXIS2_PLACEMENT_3D('',#1433,#1434,#1435);
#1433 = CARTESIAN_POINT('',(-240.2495997684,309.89999970355,
    4.464996228509));
#1434 = DIRECTION('',(0.707106781187,-0.707106781187,0.));
#1435 = DIRECTION('',(0.707106781187,0.707106781187,0.));
#1436 = ADVANCED_FACE('',(#1437),#1456,.T.);
#1437 = FACE_BOUND('',#1438,.T.);
#1438 = EDGE_LOOP('',(#1439,#1440,#1441,#1442,#1450));
#1439 = ORIENTED_EDGE('',*,*,#1155,.T.);
#1440 = ORIENTED_EDGE('',*,*,#1086,.F.);
#1441 = ORIENTED_EDGE('',*,*,#398,.T.);
#1442 = ORIENTED_EDGE('',*,*,#1443,.T.);
#1443 = EDGE_CURVE('',#391,#1444,#1446,.T.);
#1444 = VERTEX_POINT('',#1445);
#1445 = CARTESIAN_POINT('',(-240.9995998535,325.,11.54));
#1446 = LINE('',#1447,#1448);
#1447 = CARTESIAN_POINT('',(-241.8996004257,325.,11.54));
#1448 = VECTOR('',#1449,1.);
#1449 = DIRECTION('',(1.,2.22044604925E-16,0.));
#1450 = ORIENTED_EDGE('',*,*,#1451,.T.);
#1451 = EDGE_CURVE('',#1444,#1156,#1452,.T.);
#1452 = LINE('',#1453,#1454);
#1453 = CARTESIAN_POINT('',(-240.9995998535,325.,11.54));
#1454 = VECTOR('',#1455,1.);
#1455 = DIRECTION('',(0.707117570862,2.680322500155E-16,-0.707095991346)
  );
#1456 = PLANE('',#1457);
#1457 = AXIS2_PLACEMENT_3D('',#1458,#1459,#1460);
#1458 = CARTESIAN_POINT('',(-241.2438209811,325.,10.664469473066));
#1459 = DIRECTION('',(0.,1.,0.));
#1460 = DIRECTION('',(0.,-0.,1.));
#1461 = ADVANCED_FACE('',(#1462),#1480,.T.);
#1462 = FACE_BOUND('',#1463,.T.);
#1463 = EDGE_LOOP('',(#1464,#1472,#1473,#1474));
#1464 = ORIENTED_EDGE('',*,*,#1465,.T.);
#1465 = EDGE_CURVE('',#1466,#1444,#1468,.T.);
#1466 = VERTEX_POINT('',#1467);
#1467 = CARTESIAN_POINT('',(-240.9995998535,320.,11.54));
#1468 = LINE('',#1469,#1470);
#1469 = CARTESIAN_POINT('',(-240.9995998535,320.,11.54));
#1470 = VECTOR('',#1471,1.);
#1471 = DIRECTION('',(-2.22044604925E-16,1.,1.570092458684E-16));
#1472 = ORIENTED_EDGE('',*,*,#1443,.F.);
#1473 = ORIENTED_EDGE('',*,*,#390,.T.);
#1474 = ORIENTED_EDGE('',*,*,#1475,.T.);
#1475 = EDGE_CURVE('',#383,#1466,#1476,.T.);
#1476 = LINE('',#1477,#1478);
#1477 = CARTESIAN_POINT('',(-241.8996004257,320.,11.54));
#1478 = VECTOR('',#1479,1.);
#1479 = DIRECTION('',(1.,2.22044604925E-16,0.));
#1480 = PLANE('',#1481);
#1481 = AXIS2_PLACEMENT_3D('',#1482,#1483,#1484);
#1482 = CARTESIAN_POINT('',(-241.4496001396,322.5,11.54));
#1483 = DIRECTION('',(0.,0.,1.));
#1484 = DIRECTION('',(1.,0.,-0.));
#1485 = ADVANCED_FACE('',(#1486),#1502,.T.);
#1486 = FACE_BOUND('',#1487,.T.);
#1487 = EDGE_LOOP('',(#1488,#1489,#1495,#1496));
#1488 = ORIENTED_EDGE('',*,*,#1163,.F.);
#1489 = ORIENTED_EDGE('',*,*,#1490,.T.);
#1490 = EDGE_CURVE('',#1156,#1302,#1491,.T.);
#1491 = LINE('',#1492,#1493);
#1492 = CARTESIAN_POINT('',(-240.4995998535,325.,11.040015258789));
#1493 = VECTOR('',#1494,1.);
#1494 = DIRECTION('',(2.22044604925E-16,-1.,-1.570092458684E-16));
#1495 = ORIENTED_EDGE('',*,*,#1301,.T.);
#1496 = ORIENTED_EDGE('',*,*,#1497,.T.);
#1497 = EDGE_CURVE('',#1256,#1164,#1498,.T.);
#1498 = LINE('',#1499,#1500);
#1499 = CARTESIAN_POINT('',(-240.1460498962,320.35355997085,
    10.686446228027));
#1500 = VECTOR('',#1501,1.);
#1501 = DIRECTION('',(-2.22044604925E-16,1.,1.570092458684E-16));
#1502 = PLANE('',#1503);
#1503 = AXIS2_PLACEMENT_3D('',#1504,#1505,#1506);
#1504 = CARTESIAN_POINT('',(-240.3347097686,322.5,10.875116278327));
#1505 = DIRECTION('',(0.707125854086,0.,0.707087707772));
#1506 = DIRECTION('',(-0.707087707772,0.,0.707125854086));
#1507 = ADVANCED_FACE('',(#1508),#1519,.T.);
#1508 = FACE_BOUND('',#1509,.T.);
#1509 = EDGE_LOOP('',(#1510,#1511,#1517,#1518));
#1510 = ORIENTED_EDGE('',*,*,#1465,.F.);
#1511 = ORIENTED_EDGE('',*,*,#1512,.T.);
#1512 = EDGE_CURVE('',#1466,#1302,#1513,.T.);
#1513 = LINE('',#1514,#1515);
#1514 = CARTESIAN_POINT('',(-240.9995998535,320.,11.54));
#1515 = VECTOR('',#1516,1.);
#1516 = DIRECTION('',(0.707117570862,2.680322500155E-16,-0.707095991346)
  );
#1517 = ORIENTED_EDGE('',*,*,#1490,.F.);
#1518 = ORIENTED_EDGE('',*,*,#1451,.F.);
#1519 = PLANE('',#1520);
#1520 = AXIS2_PLACEMENT_3D('',#1521,#1522,#1523);
#1521 = CARTESIAN_POINT('',(-240.7495998535,322.5,11.290007629395));
#1522 = DIRECTION('',(0.707095991346,0.,0.707117570862));
#1523 = DIRECTION('',(0.707117570862,0.,-0.707095991346));
#1524 = ADVANCED_FACE('',(#1525),#1536,.T.);
#1525 = FACE_BOUND('',#1526,.T.);
#1526 = EDGE_LOOP('',(#1527,#1528,#1529,#1535));
#1527 = ORIENTED_EDGE('',*,*,#1497,.F.);
#1528 = ORIENTED_EDGE('',*,*,#1255,.T.);
#1529 = ORIENTED_EDGE('',*,*,#1530,.T.);
#1530 = EDGE_CURVE('',#1258,#1187,#1531,.T.);
#1531 = LINE('',#1532,#1533);
#1532 = CARTESIAN_POINT('',(-239.9995998535,320.5,10.332892456055));
#1533 = VECTOR('',#1534,1.);
#1534 = DIRECTION('',(-2.22044604925E-16,1.,1.570092458684E-16));
#1535 = ORIENTED_EDGE('',*,*,#1186,.F.);
#1536 = PLANE('',#1537);
#1537 = AXIS2_PLACEMENT_3D('',#1538,#1539,#1540);
#1538 = CARTESIAN_POINT('',(-240.0751783942,322.5,10.515351113318));
#1539 = DIRECTION('',(0.923876506471,0.,0.382690737791));
#1540 = DIRECTION('',(-0.382690737791,0.,0.923876506471));
#1541 = ADVANCED_FACE('',(#1542),#1549,.T.);
#1542 = FACE_BOUND('',#1543,.T.);
#1543 = EDGE_LOOP('',(#1544,#1545,#1546,#1547,#1548));
#1544 = ORIENTED_EDGE('',*,*,#1512,.F.);
#1545 = ORIENTED_EDGE('',*,*,#1475,.F.);
#1546 = ORIENTED_EDGE('',*,*,#382,.T.);
#1547 = ORIENTED_EDGE('',*,*,#1110,.T.);
#1548 = ORIENTED_EDGE('',*,*,#1309,.T.);
#1549 = PLANE('',#1550);
#1550 = AXIS2_PLACEMENT_3D('',#1551,#1552,#1553);
#1551 = CARTESIAN_POINT('',(-241.2438209811,320.,10.664469473066));
#1552 = DIRECTION('',(-0.,-1.,-0.));
#1553 = DIRECTION('',(0.,0.,-1.));
#1554 = ADVANCED_FACE('',(#1555),#1571,.T.);
#1555 = FACE_BOUND('',#1556,.T.);
#1556 = EDGE_LOOP('',(#1557,#1563,#1564,#1570));
#1557 = ORIENTED_EDGE('',*,*,#1558,.T.);
#1558 = EDGE_CURVE('',#171,#891,#1559,.T.);
#1559 = LINE('',#1560,#1561);
#1560 = CARTESIAN_POINT('',(-240.1460498962,306.85356044769,
    -0.813553771973));
#1561 = VECTOR('',#1562,1.);
#1562 = DIRECTION('',(-3.486305596842E-32,1.570092458684E-16,-1.));
#1563 = ORIENTED_EDGE('',*,*,#890,.F.);
#1564 = ORIENTED_EDGE('',*,*,#1565,.T.);
#1565 = EDGE_CURVE('',#869,#141,#1566,.T.);
#1566 = LINE('',#1567,#1568);
#1567 = CARTESIAN_POINT('',(-239.9995998535,307.20711040496,-4.96));
#1568 = VECTOR('',#1569,1.);
#1569 = DIRECTION('',(3.486305596842E-32,-1.570092458684E-16,1.));
#1570 = ORIENTED_EDGE('',*,*,#178,.F.);
#1571 = PLANE('',#1572);
#1572 = AXIS2_PLACEMENT_3D('',#1573,#1574,#1575);
#1573 = CARTESIAN_POINT('',(-240.0751784912,307.02465348223,-2.96));
#1574 = DIRECTION('',(0.92387504658,-0.382694262182,0.));
#1575 = DIRECTION('',(0.382694262182,0.92387504658,0.));
#1576 = ADVANCED_FACE('',(#1577),#1583,.T.);
#1577 = FACE_BOUND('',#1578,.T.);
#1578 = EDGE_LOOP('',(#1579,#1580,#1581,#1582));
#1579 = ORIENTED_EDGE('',*,*,#913,.F.);
#1580 = ORIENTED_EDGE('',*,*,#1558,.F.);
#1581 = ORIENTED_EDGE('',*,*,#194,.F.);
#1582 = ORIENTED_EDGE('',*,*,#39,.T.);
#1583 = PLANE('',#1584);
#1584 = AXIS2_PLACEMENT_3D('',#1585,#1586,#1587);
#1585 = CARTESIAN_POINT('',(-240.3347095655,306.66489518055,-2.96));
#1586 = DIRECTION('',(0.707117271472,-0.707096290745,0.));
#1587 = DIRECTION('',(0.707096290745,0.707117271472,0.));
#1588 = ADVANCED_FACE('',(#1589),#1600,.T.);
#1589 = FACE_BOUND('',#1590,.T.);
#1590 = EDGE_LOOP('',(#1591,#1592,#1593,#1599));
#1591 = ORIENTED_EDGE('',*,*,#21,.F.);
#1592 = ORIENTED_EDGE('',*,*,#71,.T.);
#1593 = ORIENTED_EDGE('',*,*,#1594,.T.);
#1594 = EDGE_CURVE('',#62,#800,#1595,.T.);
#1595 = LINE('',#1596,#1597);
#1596 = CARTESIAN_POINT('',(-249.6995996627,306.,-0.46));
#1597 = VECTOR('',#1598,1.);
#1598 = DIRECTION('',(-3.486305596842E-32,1.570092458684E-16,-1.));
#1599 = ORIENTED_EDGE('',*,*,#799,.T.);
#1600 = PLANE('',#1601);
#1601 = AXIS2_PLACEMENT_3D('',#1602,#1603,#1604);
#1602 = CARTESIAN_POINT('',(-245.3495997581,306.,-2.96));
#1603 = DIRECTION('',(-0.,-1.,-0.));
#1604 = DIRECTION('',(0.,0.,-1.));
#1605 = ADVANCED_FACE('',(#1606),#1612,.T.);
#1606 = FACE_BOUND('',#1607,.T.);
#1607 = EDGE_LOOP('',(#1608,#1609,#1610,#1611));
#1608 = ORIENTED_EDGE('',*,*,#1594,.F.);
#1609 = ORIENTED_EDGE('',*,*,#61,.T.);
#1610 = ORIENTED_EDGE('',*,*,#614,.T.);
#1611 = ORIENTED_EDGE('',*,*,#807,.T.);
#1612 = PLANE('',#1613);
#1613 = AXIS2_PLACEMENT_3D('',#1614,#1615,#1616);
#1614 = CARTESIAN_POINT('',(-250.1995999011,306.5,-2.96));
#1615 = DIRECTION('',(-0.707106612599,-0.707106949774,-0.));
#1616 = DIRECTION('',(-0.707106949774,0.707106612599,0.));
#1617 = ADVANCED_FACE('',(#1618),#1629,.T.);
#1618 = FACE_BOUND('',#1619,.T.);
#1619 = EDGE_LOOP('',(#1620,#1621,#1622,#1628));
#1620 = ORIENTED_EDGE('',*,*,#623,.F.);
#1621 = ORIENTED_EDGE('',*,*,#118,.T.);
#1622 = ORIENTED_EDGE('',*,*,#1623,.T.);
#1623 = EDGE_CURVE('',#111,#815,#1624,.T.);
#1624 = LINE('',#1625,#1626);
#1625 = CARTESIAN_POINT('',(-249.4995998535,307.75,-0.46));
#1626 = VECTOR('',#1627,1.);
#1627 = DIRECTION('',(-3.486305596842E-32,1.570092458684E-16,-1.));
#1628 = ORIENTED_EDGE('',*,*,#814,.T.);
#1629 = PLANE('',#1630);
#1630 = AXIS2_PLACEMENT_3D('',#1631,#1632,#1633);
#1631 = CARTESIAN_POINT('',(-250.0995999965,308.34999990463,-2.96));
#1632 = DIRECTION('',(0.707106640697,0.707106921676,0.));
#1633 = DIRECTION('',(0.707106921676,-0.707106640697,0.));
#1634 = ADVANCED_FACE('',(#1635),#1646,.T.);
#1635 = FACE_BOUND('',#1636,.T.);
#1636 = EDGE_LOOP('',(#1637,#1638,#1639,#1645));
#1637 = ORIENTED_EDGE('',*,*,#469,.T.);
#1638 = ORIENTED_EDGE('',*,*,#830,.F.);
#1639 = ORIENTED_EDGE('',*,*,#1640,.T.);
#1640 = EDGE_CURVE('',#823,#103,#1641,.T.);
#1641 = LINE('',#1642,#1643);
#1642 = CARTESIAN_POINT('',(-249.2996000442,307.5,-5.46));
#1643 = VECTOR('',#1644,1.);
#1644 = DIRECTION('',(3.486305596842E-32,-1.570092458684E-16,1.));
#1645 = ORIENTED_EDGE('',*,*,#102,.F.);
#1646 = PLANE('',#1647);
#1647 = AXIS2_PLACEMENT_3D('',#1648,#1649,#1650);
#1648 = CARTESIAN_POINT('',(-245.5996002349,307.5,-2.96));
#1649 = DIRECTION('',(0.,1.,0.));
#1650 = DIRECTION('',(0.,-0.,1.));
#1651 = ADVANCED_FACE('',(#1652),#1658,.T.);
#1652 = FACE_BOUND('',#1653,.T.);
#1653 = EDGE_LOOP('',(#1654,#1655,#1656,#1657));
#1654 = ORIENTED_EDGE('',*,*,#822,.F.);
#1655 = ORIENTED_EDGE('',*,*,#1623,.F.);
#1656 = ORIENTED_EDGE('',*,*,#110,.F.);
#1657 = ORIENTED_EDGE('',*,*,#1640,.F.);
#1658 = PLANE('',#1659);
#1659 = AXIS2_PLACEMENT_3D('',#1660,#1661,#1662);
#1660 = CARTESIAN_POINT('',(-249.3995999488,307.625,-2.96));
#1661 = DIRECTION('',(0.780869100056,0.624694684289,0.));
#1662 = DIRECTION('',(-0.624694684289,0.780869100056,0.));
#1663 = ADVANCED_FACE('',(#1664),#1689,.T.);
#1664 = FACE_BOUND('',#1665,.T.);
#1665 = EDGE_LOOP('',(#1666,#1667,#1675,#1683));
#1666 = ORIENTED_EDGE('',*,*,#504,.F.);
#1667 = ORIENTED_EDGE('',*,*,#1668,.T.);
#1668 = EDGE_CURVE('',#497,#1669,#1671,.T.);
#1669 = VERTEX_POINT('',#1670);
#1670 = CARTESIAN_POINT('',(-240.4995998535,326.84999990463,
    -0.648003540039));
#1671 = LINE('',#1672,#1673);
#1672 = CARTESIAN_POINT('',(-241.8996004257,326.84999990463,
    -0.648003540039));
#1673 = VECTOR('',#1674,1.);
#1674 = DIRECTION('',(1.,2.22044604925E-16,0.));
#1675 = ORIENTED_EDGE('',*,*,#1676,.T.);
#1676 = EDGE_CURVE('',#1669,#1677,#1679,.T.);
#1677 = VERTEX_POINT('',#1678);
#1678 = CARTESIAN_POINT('',(-240.4995998535,318.15000009536,
    -0.648003540039));
#1679 = LINE('',#1680,#1681);
#1680 = CARTESIAN_POINT('',(-240.4995998535,326.84999990463,
    -0.648003540039));
#1681 = VECTOR('',#1682,1.);
#1682 = DIRECTION('',(2.22044604925E-16,-1.,-1.570092458684E-16));
#1683 = ORIENTED_EDGE('',*,*,#1684,.T.);
#1684 = EDGE_CURVE('',#1677,#479,#1685,.T.);
#1685 = LINE('',#1686,#1687);
#1686 = CARTESIAN_POINT('',(-240.4995998535,318.15000009536,
    -0.648003540039));
#1687 = VECTOR('',#1688,1.);
#1688 = DIRECTION('',(-1.,-2.22044604925E-16,0.));
#1689 = PLANE('',#1690);
#1690 = AXIS2_PLACEMENT_3D('',#1691,#1692,#1693);
#1691 = CARTESIAN_POINT('',(-241.1996001396,322.5,-0.648003540039));
#1692 = DIRECTION('',(-0.,-0.,-1.));
#1693 = DIRECTION('',(-1.,0.,0.));
#1694 = ADVANCED_FACE('',(#1695),#1713,.T.);
#1695 = FACE_BOUND('',#1696,.T.);
#1696 = EDGE_LOOP('',(#1697,#1698,#1706,#1712));
#1697 = ORIENTED_EDGE('',*,*,#496,.F.);
#1698 = ORIENTED_EDGE('',*,*,#1699,.T.);
#1699 = EDGE_CURVE('',#489,#1700,#1702,.T.);
#1700 = VERTEX_POINT('',#1701);
#1701 = CARTESIAN_POINT('',(-240.4995998535,326.84999990463,
    -9.348000488281));
#1702 = LINE('',#1703,#1704);
#1703 = CARTESIAN_POINT('',(-241.8996004257,326.84999990463,
    -9.348000488281));
#1704 = VECTOR('',#1705,1.);
#1705 = DIRECTION('',(1.,2.22044604925E-16,0.));
#1706 = ORIENTED_EDGE('',*,*,#1707,.T.);
#1707 = EDGE_CURVE('',#1700,#1669,#1708,.T.);
#1708 = LINE('',#1709,#1710);
#1709 = CARTESIAN_POINT('',(-240.4995998535,326.84999990463,
    -9.348000488281));
#1710 = VECTOR('',#1711,1.);
#1711 = DIRECTION('',(3.486305596842E-32,-1.570092458684E-16,1.));
#1712 = ORIENTED_EDGE('',*,*,#1668,.F.);
#1713 = PLANE('',#1714);
#1714 = AXIS2_PLACEMENT_3D('',#1715,#1716,#1717);
#1715 = CARTESIAN_POINT('',(-241.1996001396,326.84999990463,
    -4.99800201416));
#1716 = DIRECTION('',(-0.,-1.,-0.));
#1717 = DIRECTION('',(0.,0.,-1.));
#1718 = ADVANCED_FACE('',(#1719),#1737,.T.);
#1719 = FACE_BOUND('',#1720,.T.);
#1720 = EDGE_LOOP('',(#1721,#1722,#1730,#1736));
#1721 = ORIENTED_EDGE('',*,*,#488,.F.);
#1722 = ORIENTED_EDGE('',*,*,#1723,.T.);
#1723 = EDGE_CURVE('',#481,#1724,#1726,.T.);
#1724 = VERTEX_POINT('',#1725);
#1725 = CARTESIAN_POINT('',(-240.4995998535,318.15000009536,
    -9.348000488281));
#1726 = LINE('',#1727,#1728);
#1727 = CARTESIAN_POINT('',(-241.8996004257,318.15000009536,
    -9.348000488281));
#1728 = VECTOR('',#1729,1.);
#1729 = DIRECTION('',(1.,2.22044604925E-16,0.));
#1730 = ORIENTED_EDGE('',*,*,#1731,.T.);
#1731 = EDGE_CURVE('',#1724,#1700,#1732,.T.);
#1732 = LINE('',#1733,#1734);
#1733 = CARTESIAN_POINT('',(-240.4995998535,318.15000009536,
    -9.348000488281));
#1734 = VECTOR('',#1735,1.);
#1735 = DIRECTION('',(-2.22044604925E-16,1.,1.570092458684E-16));
#1736 = ORIENTED_EDGE('',*,*,#1699,.F.);
#1737 = PLANE('',#1738);
#1738 = AXIS2_PLACEMENT_3D('',#1739,#1740,#1741);
#1739 = CARTESIAN_POINT('',(-241.1996001396,322.5,-9.348000488281));
#1740 = DIRECTION('',(0.,0.,1.));
#1741 = DIRECTION('',(1.,0.,-0.));
#1742 = ADVANCED_FACE('',(#1743),#1768,.T.);
#1743 = FACE_BOUND('',#1744,.T.);
#1744 = EDGE_LOOP('',(#1745,#1746,#1754,#1762));
#1745 = ORIENTED_EDGE('',*,*,#1707,.F.);
#1746 = ORIENTED_EDGE('',*,*,#1747,.T.);
#1747 = EDGE_CURVE('',#1700,#1748,#1750,.T.);
#1748 = VERTEX_POINT('',#1749);
#1749 = CARTESIAN_POINT('',(-239.9995998535,327.34999990463,
    -9.848000488281));
#1750 = LINE('',#1751,#1752);
#1751 = CARTESIAN_POINT('',(-240.4995998535,326.84999990463,
    -9.348000488281));
#1752 = VECTOR('',#1753,1.);
#1753 = DIRECTION('',(0.57735026919,0.57735026919,-0.57735026919));
#1754 = ORIENTED_EDGE('',*,*,#1755,.T.);
#1755 = EDGE_CURVE('',#1748,#1756,#1758,.T.);
#1756 = VERTEX_POINT('',#1757);
#1757 = CARTESIAN_POINT('',(-239.9995998535,327.34999990463,
    -0.148003540039));
#1758 = LINE('',#1759,#1760);
#1759 = CARTESIAN_POINT('',(-239.9995998535,327.34999990463,
    -9.848000488281));
#1760 = VECTOR('',#1761,1.);
#1761 = DIRECTION('',(3.486305596842E-32,-1.570092458684E-16,1.));
#1762 = ORIENTED_EDGE('',*,*,#1763,.T.);
#1763 = EDGE_CURVE('',#1756,#1669,#1764,.T.);
#1764 = LINE('',#1765,#1766);
#1765 = CARTESIAN_POINT('',(-239.9995998535,327.34999990463,
    -0.148003540039));
#1766 = VECTOR('',#1767,1.);
#1767 = DIRECTION('',(-0.57735026919,-0.57735026919,-0.57735026919));
#1768 = PLANE('',#1769);
#1769 = AXIS2_PLACEMENT_3D('',#1770,#1771,#1772);
#1770 = CARTESIAN_POINT('',(-240.2371818401,327.11241791798,
    -4.99800201416));
#1771 = DIRECTION('',(0.707106781187,-0.707106781187,-0.));
#1772 = DIRECTION('',(-0.707106781187,-0.707106781187,0.));
#1773 = ADVANCED_FACE('',(#1774,#1792),#1817,.T.);
#1774 = FACE_BOUND('',#1775,.T.);
#1775 = EDGE_LOOP('',(#1776,#1777,#1778,#1779,#1780,#1781,#1782,#1783,
    #1784,#1785,#1786,#1787,#1788,#1789,#1790,#1791));
#1776 = ORIENTED_EDGE('',*,*,#1233,.F.);
#1777 = ORIENTED_EDGE('',*,*,#1426,.F.);
#1778 = ORIENTED_EDGE('',*,*,#140,.F.);
#1779 = ORIENTED_EDGE('',*,*,#1565,.F.);
#1780 = ORIENTED_EDGE('',*,*,#868,.F.);
#1781 = ORIENTED_EDGE('',*,*,#1408,.F.);
#1782 = ORIENTED_EDGE('',*,*,#1350,.F.);
#1783 = ORIENTED_EDGE('',*,*,#1062,.F.);
#1784 = ORIENTED_EDGE('',*,*,#776,.F.);
#1785 = ORIENTED_EDGE('',*,*,#966,.F.);
#1786 = ORIENTED_EDGE('',*,*,#249,.F.);
#1787 = ORIENTED_EDGE('',*,*,#1037,.F.);
#1788 = ORIENTED_EDGE('',*,*,#1141,.F.);
#1789 = ORIENTED_EDGE('',*,*,#1208,.F.);
#1790 = ORIENTED_EDGE('',*,*,#1530,.F.);
#1791 = ORIENTED_EDGE('',*,*,#1286,.F.);
#1792 = FACE_BOUND('',#1793,.T.);
#1793 = EDGE_LOOP('',(#1794,#1804,#1810,#1811));
#1794 = ORIENTED_EDGE('',*,*,#1795,.T.);
#1795 = EDGE_CURVE('',#1796,#1798,#1800,.T.);
#1796 = VERTEX_POINT('',#1797);
#1797 = CARTESIAN_POINT('',(-239.9995998535,317.65000009536,
    -9.848000488281));
#1798 = VERTEX_POINT('',#1799);
#1799 = CARTESIAN_POINT('',(-239.9995998535,317.65000009536,
    -0.148003540039));
#1800 = LINE('',#1801,#1802);
#1801 = CARTESIAN_POINT('',(-239.9995998535,317.65000009536,
    -9.848000488281));
#1802 = VECTOR('',#1803,1.);
#1803 = DIRECTION('',(3.486305596842E-32,-1.570092458684E-16,1.));
#1804 = ORIENTED_EDGE('',*,*,#1805,.T.);
#1805 = EDGE_CURVE('',#1798,#1756,#1806,.T.);
#1806 = LINE('',#1807,#1808);
#1807 = CARTESIAN_POINT('',(-239.9995998535,317.65000009536,
    -0.148003540039));
#1808 = VECTOR('',#1809,1.);
#1809 = DIRECTION('',(-2.22044604925E-16,1.,1.570092458684E-16));
#1810 = ORIENTED_EDGE('',*,*,#1755,.F.);
#1811 = ORIENTED_EDGE('',*,*,#1812,.T.);
#1812 = EDGE_CURVE('',#1748,#1796,#1813,.T.);
#1813 = LINE('',#1814,#1815);
#1814 = CARTESIAN_POINT('',(-239.9995998535,327.34999990463,
    -9.848000488281));
#1815 = VECTOR('',#1816,1.);
#1816 = DIRECTION('',(2.22044604925E-16,-1.,-1.570092458684E-16));
#1817 = PLANE('',#1818);
#1818 = AXIS2_PLACEMENT_3D('',#1819,#1820,#1821);
#1819 = CARTESIAN_POINT('',(-239.9995998535,322.5,-2.711460390176));
#1820 = DIRECTION('',(1.,0.,0.));
#1821 = DIRECTION('',(-0.,0.,1.));
#1822 = ADVANCED_FACE('',(#1823),#1834,.T.);
#1823 = FACE_BOUND('',#1824,.T.);
#1824 = EDGE_LOOP('',(#1825,#1826,#1827,#1833));
#1825 = ORIENTED_EDGE('',*,*,#478,.F.);
#1826 = ORIENTED_EDGE('',*,*,#1684,.F.);
#1827 = ORIENTED_EDGE('',*,*,#1828,.T.);
#1828 = EDGE_CURVE('',#1677,#1724,#1829,.T.);
#1829 = LINE('',#1830,#1831);
#1830 = CARTESIAN_POINT('',(-240.4995998535,318.15000009536,
    -0.648003540039));
#1831 = VECTOR('',#1832,1.);
#1832 = DIRECTION('',(-3.486305596842E-32,1.570092458684E-16,-1.));
#1833 = ORIENTED_EDGE('',*,*,#1723,.F.);
#1834 = PLANE('',#1835);
#1835 = AXIS2_PLACEMENT_3D('',#1836,#1837,#1838);
#1836 = CARTESIAN_POINT('',(-241.1996001396,318.15000009536,
    -4.99800201416));
#1837 = DIRECTION('',(0.,1.,0.));
#1838 = DIRECTION('',(0.,-0.,1.));
#1839 = ADVANCED_FACE('',(#1840),#1856,.T.);
#1840 = FACE_BOUND('',#1841,.T.);
#1841 = EDGE_LOOP('',(#1842,#1843,#1849,#1850));
#1842 = ORIENTED_EDGE('',*,*,#1795,.F.);
#1843 = ORIENTED_EDGE('',*,*,#1844,.T.);
#1844 = EDGE_CURVE('',#1796,#1724,#1845,.T.);
#1845 = LINE('',#1846,#1847);
#1846 = CARTESIAN_POINT('',(-239.9995998535,317.65000009536,
    -9.848000488281));
#1847 = VECTOR('',#1848,1.);
#1848 = DIRECTION('',(-0.57735026919,0.57735026919,0.57735026919));
#1849 = ORIENTED_EDGE('',*,*,#1828,.F.);
#1850 = ORIENTED_EDGE('',*,*,#1851,.T.);
#1851 = EDGE_CURVE('',#1677,#1798,#1852,.T.);
#1852 = LINE('',#1853,#1854);
#1853 = CARTESIAN_POINT('',(-240.4995998535,318.15000009536,
    -0.648003540039));
#1854 = VECTOR('',#1855,1.);
#1855 = DIRECTION('',(0.57735026919,-0.57735026919,0.57735026919));
#1856 = PLANE('',#1857);
#1857 = AXIS2_PLACEMENT_3D('',#1858,#1859,#1860);
#1858 = CARTESIAN_POINT('',(-240.2371818401,317.88758208201,
    -4.99800201416));
#1859 = DIRECTION('',(0.707106781187,0.707106781187,0.));
#1860 = DIRECTION('',(0.707106781187,-0.707106781187,0.));
#1861 = ADVANCED_FACE('',(#1862),#1868,.T.);
#1862 = FACE_BOUND('',#1863,.T.);
#1863 = EDGE_LOOP('',(#1864,#1865,#1866,#1867));
#1864 = ORIENTED_EDGE('',*,*,#1851,.F.);
#1865 = ORIENTED_EDGE('',*,*,#1676,.F.);
#1866 = ORIENTED_EDGE('',*,*,#1763,.F.);
#1867 = ORIENTED_EDGE('',*,*,#1805,.F.);
#1868 = PLANE('',#1869);
#1869 = AXIS2_PLACEMENT_3D('',#1870,#1871,#1872);
#1870 = CARTESIAN_POINT('',(-240.2371818436,322.5,-0.385585530213));
#1871 = DIRECTION('',(0.707106781187,0.,-0.707106781187));
#1872 = DIRECTION('',(0.707106781187,0.,0.707106781187));
#1873 = ADVANCED_FACE('',(#1874),#1880,.T.);
#1874 = FACE_BOUND('',#1875,.T.);
#1875 = EDGE_LOOP('',(#1876,#1877,#1878,#1879));
#1876 = ORIENTED_EDGE('',*,*,#1812,.F.);
#1877 = ORIENTED_EDGE('',*,*,#1747,.F.);
#1878 = ORIENTED_EDGE('',*,*,#1731,.F.);
#1879 = ORIENTED_EDGE('',*,*,#1844,.F.);
#1880 = PLANE('',#1881);
#1881 = AXIS2_PLACEMENT_3D('',#1882,#1883,#1884);
#1882 = CARTESIAN_POINT('',(-240.2371818436,322.5,-9.610418498107));
#1883 = DIRECTION('',(0.707106781187,0.,0.707106781187));
#1884 = DIRECTION('',(0.707106781187,0.,-0.707106781187));
#1885 = ( GEOMETRIC_REPRESENTATION_CONTEXT(3) 
GLOBAL_UNCERTAINTY_ASSIGNED_CONTEXT((#1889)) 
GLOBAL_UNIT_ASSIGNED_CONTEXT((#1886,#1887,#1888)) REPRESENTATION_CONTEXT
('Context #1','3D Context with UNIT and UNCERTAINTY') );
#1886 = ( LENGTH_UNIT() NAMED_UNIT(*) SI_UNIT(.MILLI.,.METRE.) );
#1887 = ( NAMED_UNIT(*) PLANE_ANGLE_UNIT() SI_UNIT($,.RADIAN.) );
#1888 = ( NAMED_UNIT(*) SI_UNIT($,.STERADIAN.) SOLID_ANGLE_UNIT() );
#1889 = UNCERTAINTY_MEASURE_WITH_UNIT(LENGTH_MEASURE(1.E-07),#1886,
  'distance_accuracy_value','confusion accuracy');
#1890 = PRODUCT_RELATED_PRODUCT_CATEGORY('part',$,(#7));
ENDSEC;
END-ISO-10303-21;
